<svg width="50" height="63" viewBox="0 0 50 63" fill="none" xmlns="http://www.w3.org/2000/svg">
<path d="M37.234 23.532H12.7658C12.2256 23.532 11.7871 23.9695 11.7871 24.5107C11.7871 25.0519 12.2256 25.4894 12.7658 25.4894H37.234C37.7742 25.4894 38.2127 25.0519 38.2127 24.5107C38.2127 23.9695 37.7742 23.532 37.234 23.532Z" fill="#333E57" fill-opacity="0.9" stroke="#FF3E79" stroke-width="3"/>
<path d="M12.7658 17.66H22.5531C23.0934 17.66 23.5318 17.2225 23.5318 16.6812C23.5318 16.14 23.0934 15.7025 22.5531 15.7025H12.7658C12.2256 15.7025 11.7871 16.14 11.7871 16.6812C11.7871 17.2225 12.2256 17.66 12.7658 17.66Z" fill="#333E57" fill-opacity="0.9" stroke="#FF3E79" stroke-width="3"/>
<path d="M37.234 31.3618H12.7658C12.2256 31.3618 11.7871 31.7993 11.7871 32.3405C11.7871 32.8818 12.2256 33.3193 12.7658 33.3193H37.234C37.7742 33.3193 38.2127 32.8818 38.2127 32.3405C38.2127 31.7993 37.7742 31.3618 37.234 31.3618Z" fill="#333E57" fill-opacity="0.9" stroke="#FF3E79" stroke-width="3"/>
<path d="M37.234 39.1917H12.7658C12.2256 39.1917 11.7871 39.6291 11.7871 40.1704C11.7871 40.7116 12.2256 41.1491 12.7658 41.1491H37.234C37.7742 41.1491 38.2127 40.7116 38.2127 40.1704C38.2127 39.6291 37.7742 39.1917 37.234 39.1917Z" fill="#333E57" fill-opacity="0.9" stroke="#FF3E79" stroke-width="3"/>
<path d="M37.234 47.0211H12.7658C12.2256 47.0211 11.7871 47.4586 11.7871 47.9998C11.7871 48.5411 12.2256 48.9786 12.7658 48.9786H37.234C37.7742 48.9786 38.2127 48.5411 38.2127 47.9998C38.2127 47.4586 37.7742 47.0211 37.234 47.0211Z" fill="#333E57" fill-opacity="0.9" stroke="#FF3E79" stroke-width="3"/>
<path d="M33.7244 2H2V60.7236H48.0001V16.2757L33.7244 2ZM34.298 5.34137L44.6588 15.7022H34.298V5.34137ZM3.95745 58.7661V3.95745H32.3405V17.6596H46.0427V58.7661H3.95745Z" fill="#333E57" fill-opacity="0.9" stroke="#FF3E79" stroke-width="3"/>
</svg>
