<svg width="134" height="178" viewBox="0 0 134 178" fill="none" xmlns="http://www.w3.org/2000/svg">
<path d="M48.3026 62.575C50.8766 56.989 53.1866 52.135 55.3346 47.203C55.7906 46.159 55.7726 44.8569 55.7666 43.6749C55.7426 36.979 55.4846 30.283 55.6466 23.593C55.7666 18.703 58.2086 15.0309 62.8646 13.1709C65.1626 12.2529 65.3726 11.341 63.5786 9.58295C60.9086 6.97295 60.8846 3.61895 63.2966 1.39895C65.4146 -0.551051 68.8826 -0.449054 70.8986 1.62095C73.2326 4.02095 73.0346 7.14095 70.1786 9.76295C68.4686 11.3349 68.4866 12.1929 70.7426 13.1109C75.7346 15.1389 78.1046 18.985 78.0926 24.349C78.0806 28.345 78.5486 32.413 77.9966 36.331C76.6406 45.961 81.3146 53.665 85.5326 62.365C86.2586 60.421 86.7806 59.029 87.2966 57.631C91.7306 45.547 96.2606 33.505 100.509 21.3549C101.433 18.7089 101.367 15.709 101.667 12.865C101.823 11.383 101.553 9.81695 101.913 8.40095C102.087 7.71695 103.251 6.95495 104.031 6.88295C104.577 6.82895 105.243 7.86695 105.819 8.44895C105.933 8.56295 105.933 8.83895 105.909 9.03095C104.643 19.645 109.443 28.921 112.539 38.533C116.787 51.733 121.287 64.849 125.871 77.935C126.417 79.495 127.935 81.025 129.405 81.907C134.439 84.937 135.027 87.535 131.613 92.239C130.947 93.157 130.851 94.645 130.851 95.869C130.809 121.663 130.833 147.451 130.785 173.245C130.779 175.051 131.655 177.907 128.529 177.775C125.637 177.655 126.801 174.901 126.693 173.215C126.525 170.629 126.525 168.013 126.687 165.421C126.831 163.105 125.907 161.821 123.687 161.377C120.465 160.735 117.273 159.787 114.021 159.493C105.033 158.671 96.0686 158.719 87.2126 160.897C84.1946 161.641 82.3466 162.967 82.9766 166.447C83.1866 167.605 83.2646 168.925 82.9106 170.011C82.6166 170.929 81.6026 171.613 80.9126 172.399C80.2106 171.589 79.3706 170.857 78.8666 169.939C78.5726 169.399 78.8066 168.571 78.8066 167.869C78.8066 158.971 78.7406 150.073 78.8546 141.175C78.8786 139.183 78.1646 138.049 76.5026 137.131C70.1186 133.603 63.7826 133.573 57.3866 137.107C55.6166 138.085 54.8546 139.333 54.8786 141.415C54.9746 150.103 54.9206 158.791 54.9206 167.479C54.9206 168.277 55.1426 169.183 54.8426 169.855C54.4226 170.791 53.6126 171.547 52.9706 172.381C52.2326 171.517 51.1286 170.755 50.8406 169.759C50.4686 168.469 50.5826 166.963 50.7686 165.589C51.1286 162.955 49.8746 161.653 47.4866 161.179C44.3606 160.555 41.2466 159.703 38.0846 159.439C29.0966 158.701 20.1206 158.695 11.2766 160.933C8.40261 161.659 6.77061 162.949 7.20261 166.303C7.54461 168.961 7.27461 171.691 7.26861 174.391C7.26261 176.011 7.4066 177.901 5.0786 177.859C2.9306 177.823 3.10461 176.035 3.10461 174.517C3.11061 165.721 3.10461 156.925 3.10461 148.129C3.10461 130.639 3.12861 113.143 3.05661 95.653C3.05061 94.381 2.63061 92.881 1.86861 91.891C-0.831392 88.375 -0.75939 84.847 3.09861 82.789C6.26661 81.097 7.2386 78.535 8.2466 75.601C14.1506 58.435 20.2226 41.323 25.9706 24.097C27.2066 20.401 27.3686 16.339 27.9386 12.433C28.1246 11.155 27.7946 9.77495 28.1366 8.56895C28.3466 7.83695 29.3906 6.88895 30.0806 6.87095C30.7346 6.85895 31.4126 7.92695 32.0726 8.53295C32.1266 8.58095 32.1146 8.72495 32.1026 8.82695C30.8126 19.3029 35.9546 28.213 39.1766 37.567C41.9546 45.691 45.0386 53.6889 48.3026 62.575ZM121.659 78.919C115.635 61.021 109.767 43.579 103.713 25.597C103.191 26.869 102.867 27.577 102.603 28.3029C97.8806 41.125 93.1946 53.965 88.3946 66.757C87.9206 68.029 86.7626 69.043 85.9166 70.171C84.9086 69.085 83.5766 68.155 82.9406 66.877C80.2766 61.519 77.7146 56.101 75.3566 50.599C74.5226 48.655 74.0366 46.423 73.9766 44.311C73.7966 38.047 73.9106 31.777 73.9106 25.3209C69.1346 25.3209 64.7126 25.3209 59.9486 25.3209C59.9486 31.951 59.9966 38.419 59.9126 44.893C59.8946 46.345 59.6486 47.905 59.0606 49.219C56.3486 55.327 53.5406 61.399 50.6126 67.411C50.0726 68.515 48.8126 69.277 47.8886 70.195C47.0726 69.157 45.9326 68.245 45.4826 67.069C42.4766 59.143 39.6206 51.163 36.7046 43.201C34.6286 37.549 32.5346 31.903 30.4466 26.251C30.2306 26.257 30.0086 26.257 29.7926 26.263C23.7446 43.717 17.6966 61.171 11.5526 78.919C12.4766 78.859 13.0586 78.811 13.6346 78.781C20.7986 78.391 27.9746 77.581 35.1326 77.737C41.6666 77.881 48.3446 78.373 53.9126 82.711C54.5246 83.191 55.6286 83.155 56.5106 83.155C63.3026 83.191 70.1006 83.209 76.8926 83.143C77.9306 83.131 79.0166 82.807 79.9946 82.411C82.7426 81.301 85.3466 79.627 88.1846 78.991C96.7406 77.077 105.447 77.185 114.135 77.947C116.499 78.157 118.833 78.553 121.659 78.919ZM130.023 88.087C129.957 87.715 129.885 87.337 129.819 86.965C127.143 85.825 124.557 84.283 121.767 83.611C110.121 80.827 98.4086 80.947 86.7566 83.671C85.2866 84.013 84.0146 85.141 82.6226 85.855C81.5546 86.401 80.4506 87.271 79.3526 87.289C70.9706 87.415 62.5826 87.391 54.1946 87.319C53.1986 87.313 52.1426 86.833 51.2306 86.359C49.6106 85.513 48.1946 84.061 46.4966 83.635C36.1706 81.061 25.7126 81.031 15.2846 82.849C12.0086 83.419 8.85261 84.799 5.73261 86.029C4.41861 86.545 3.46461 87.919 5.13261 88.987C7.30461 90.379 7.33461 92.287 7.29861 94.447C7.23261 98.743 7.2806 103.039 7.2806 107.341C7.2806 109.579 7.2806 111.817 7.2806 114.319C16.4486 111.445 25.4066 111.241 34.4066 111.253C57.0926 111.289 79.7786 111.205 102.459 111.313C107.535 111.337 112.623 111.835 117.681 112.375C120.603 112.687 123.471 113.527 126.657 114.193C126.657 108.211 126.639 102.427 126.663 96.649C126.663 93.439 125.727 89.893 130.023 88.087ZM126.645 156.811C126.645 145.651 126.573 133.963 126.705 122.275C126.735 119.809 125.835 118.357 123.591 117.997C117.795 117.067 111.975 115.675 106.155 115.615C79.9646 115.357 53.7626 115.351 27.5726 115.615C21.6566 115.675 15.7466 117.151 9.84261 118.021C7.85061 118.315 7.11861 119.437 7.21461 121.561C7.40661 125.749 7.26861 129.955 7.26861 134.155C7.26861 141.943 7.26861 149.725 7.26861 156.925C14.1626 156.235 20.8586 155.341 27.5846 154.993C30.2846 154.849 31.2146 153.973 31.9586 151.495C37.0826 134.395 48.3806 123.595 65.6966 119.173C66.5306 118.963 67.5806 118.891 68.3426 119.215C73.5506 121.417 79.0886 123.157 83.8106 126.151C93.3986 132.235 99.1166 141.397 102.165 152.269C102.525 153.547 102.591 154.813 104.655 154.939C111.873 155.383 119.079 156.139 126.645 156.811ZM98.4206 154.639C95.8646 144.427 90.8486 135.745 82.0586 129.985C68.8166 121.315 65.1086 121.501 51.6026 130.015C50.2646 130.861 49.0226 131.911 47.8706 133.003C41.5526 138.967 37.4006 146.167 35.4326 154.639C40.6166 155.575 45.5486 156.463 50.7386 157.393C50.7386 151.423 50.8166 145.543 50.6966 139.669C50.6546 137.533 51.3926 136.099 53.1206 134.911C61.1726 129.373 69.4586 128.689 78.1946 133.279C81.5906 135.067 83.4446 137.257 83.1086 141.469C82.6826 146.779 83.0066 152.143 83.0066 157.423C88.2866 156.475 93.1646 155.593 98.4206 154.639ZM60.5966 20.7369C64.5026 20.7369 68.0426 20.743 71.5826 20.731C71.9366 20.731 72.2906 20.6109 72.9146 20.5029C71.6606 17.7369 69.5186 16.651 66.9566 16.615C64.2326 16.579 62.0666 17.8089 60.5966 20.7369Z" fill="#3F3D56"/>
<path d="M17.4145 137.545C17.4145 134.455 17.3485 131.359 17.4325 128.269C17.5165 125.125 19.2745 123.241 22.0645 123.103C25.0585 122.953 27.2486 124.729 27.3326 127.933C27.5066 134.413 27.4165 140.899 27.4165 147.379C27.4165 149.179 26.5405 150.013 24.6565 150.139C17.5105 150.619 17.4085 150.565 17.4085 143.527C17.4085 141.535 17.4085 139.537 17.4085 137.545H17.4145ZM21.9505 145.771C23.8045 142.387 23.4565 128.923 21.9505 127.261C21.9505 133.579 21.9505 139.675 21.9505 145.771Z" fill="#3F3D56"/>
<path d="M116.505 138.043C116.499 141.139 116.481 144.235 116.511 147.331C116.529 149.185 115.665 150.109 113.805 150.115C105.891 150.127 106.317 150.763 106.377 143.317C106.413 138.721 106.371 134.125 106.389 129.535C106.401 125.347 108.123 123.145 111.387 123.091C114.813 123.037 116.499 125.179 116.511 129.655C116.517 132.451 116.511 135.247 116.505 138.043ZM111.033 145.843C112.863 142.459 112.551 128.935 111.033 127.033C111.033 133.579 111.033 139.711 111.033 145.843Z" fill="#3F3D56"/>
</svg>
