<svg width="26" height="28" viewBox="0 0 26 28" fill="none" xmlns="http://www.w3.org/2000/svg">
<path d="M23.3934 24.9355V25.6855H24.1434H24.6945C24.949 25.6855 25.25 25.9256 25.25 26.3434C25.25 26.7611 24.9491 27.0012 24.6945 27.0013C24.6944 27.0013 24.6944 27.0013 24.6944 27.0013H1.30587C1.05073 27.0013 0.75 26.7611 0.75 26.3435C0.75 25.9258 1.05081 25.6856 1.30587 25.6856H1.85707H2.60707V24.9356V11.98C2.99657 11.8984 3.3662 11.7553 3.70659 11.5635C4.03347 11.7487 4.39198 11.89 4.77861 11.973L4.77961 11.9732C4.93139 12.0056 5.08367 12.0287 5.23585 12.0425V13.9559V14.7059H5.98585H12.0712H12.8212V13.9559V12.0522C12.8798 12.0555 12.9393 12.0573 12.9995 12.0573C13.0601 12.0573 13.1198 12.0555 13.1787 12.0521V13.9559V14.7059H13.9287H20.014H20.764V13.9559V12.0425C20.9164 12.0288 21.0685 12.0057 21.2189 11.9734C21.6063 11.8904 21.9655 11.7489 22.2926 11.5635C22.6334 11.7554 23.0035 11.8985 23.3934 11.98V24.9355ZM13.1788 20.2748V21.0248H13.9288H18.9706C20.0134 21.0248 20.764 20.132 20.764 19.1503V15.958V15.958V15.208H20.014H13.9288H13.1788V15.958V20.2748ZM12.0712 21.0248H12.8212V20.2748V16.7081V15.9581V15.958H12.0712V15.2081H5.98579H5.23579V15.9581V19.1504C5.23579 20.1323 5.98717 21.0248 7.02937 21.0248H12.0712Z" fill="white" stroke="#333E57" stroke-width="1.5"/>
<path d="M17.2331 9.35297C17.233 9.35299 17.233 9.35303 17.2329 9.35306L17.6181 9.99659C17.4019 10.1259 17.1595 10.2112 16.8981 10.2396C16.8353 10.2468 16.7734 10.2497 16.7116 10.2497C16.1519 10.2497 15.64 9.9799 15.2964 9.54608L17.2331 9.35297ZM17.2331 9.35297C17.105 9.42951 16.9658 9.47783 16.8172 9.49394L16.812 9.49454C16.7832 9.49787 16.7506 9.49965 16.7116 9.49965C16.1938 9.49965 15.6768 9.06803 15.6126 8.39029C15.6125 8.38978 15.6125 8.38926 15.6124 8.38874L15.5996 8.24443L14.1028 8.293C14.0914 8.76363 13.8467 9.14761 13.5158 9.34604L13.5156 9.34619C13.3463 9.4478 13.1735 9.4996 12.9994 9.4996C12.8265 9.4996 12.6534 9.44787 12.484 9.34619L12.4836 9.3459C12.1526 9.1476 11.9084 8.76399 11.8974 8.29356L10.4008 8.24173L10.3871 8.38882C10.3871 8.38896 10.3871 8.3891 10.3871 8.38924M17.2331 9.35297L10.3871 8.38924M10.3871 8.38924C10.3235 9.06745 9.80586 9.49965 9.28796 9.49965C9.24925 9.49965 9.21636 9.49786 9.18786 9.49456L9.18786 9.49454L9.18239 9.49395C9.03315 9.47778 8.89429 9.4294 8.76774 9.35347L8.76688 9.35295C8.45206 9.16464 8.2166 8.79824 8.1861 8.35555L6.70062 8.2694L6.65535 8.51182L6.65516 8.51285C6.54053 9.13141 6.05213 9.5 5.57316 9.5C5.50618 9.5 5.43756 9.49294 5.36802 9.47783L5.36453 9.47709C5.27272 9.4576 5.17303 9.4162 5.05096 9.34375M10.3871 8.38924L10.3999 8.39043C10.4184 8.80536 10.5254 9.19768 10.7032 9.54608C10.3594 9.97991 9.84747 10.2497 9.28796 10.2497C9.22656 10.2497 9.16425 10.2468 9.10161 10.2396C8.8397 10.2112 8.59732 10.1259 8.38187 9.99659C8.18691 9.87997 8.01514 9.7273 7.87321 9.54782C7.9922 9.31292 8.07984 9.05709 8.13005 8.78616L8.17513 8.54477L7.43788 8.40709L6.68965 8.45863C6.69104 8.47884 6.69264 8.499 6.69446 8.51912C6.69449 8.51946 6.69452 8.5198 6.69455 8.52015C6.72741 8.88363 6.82855 9.23238 6.98801 9.54784C6.64122 9.98477 6.12585 10.25 5.57316 10.25C5.45326 10.25 5.33126 10.2373 5.20883 10.2107C5.01086 10.1687 4.83257 10.0865 4.66535 9.98704M11.5892 9.54317C11.7321 9.72182 11.9043 9.87316 12.098 9.98923C12.3659 10.15 12.6709 10.2496 12.9994 10.2496C13.3291 10.2496 13.6337 10.15 13.9016 9.98923L11.5892 9.54317ZM11.5892 9.54317C11.7453 9.23418 11.8467 8.8909 11.8806 8.52849L11.8806 8.52807L11.8944 8.38056L11.1476 8.31115L10.3978 8.32874C10.3983 8.34922 10.399 8.36964 10.3999 8.39001L11.5892 9.54317ZM4.66535 9.98704L5.0529 9.34493C5.05225 9.34454 5.05161 9.34415 5.05096 9.34375M4.66535 9.98704C4.47175 9.87019 4.30212 9.71899 4.16213 9.54235L1.5548 9.4521C1.65749 9.48492 1.7592 9.5 1.85836 9.5C2.30092 9.5 2.75872 9.18719 2.91447 8.62887L2.91457 8.62851L3.01221 8.27916L4.48048 8.40327C4.52353 8.81614 4.74625 9.15896 5.05096 9.34375M4.66535 9.98704L5.04889 9.34253C5.04958 9.34294 5.05027 9.34335 5.05096 9.34375M17.813 8.35656L19.2986 8.2694L19.3438 8.51182L19.3439 8.51229C19.4592 9.132 19.9476 9.5 20.426 9.5C20.4929 9.5 20.5615 9.49298 20.6325 9.47763L20.6344 9.47724C20.7265 9.4576 20.8274 9.41562 20.9473 9.34405C21.2531 9.1593 21.4761 8.8164 21.5191 8.40327L22.9874 8.27916L23.085 8.62851L23.0851 8.62883C23.2409 9.18713 23.6986 9.5 24.1416 9.5C24.2404 9.5 24.3421 9.48495 24.4448 9.4521L24.4449 9.45208C25.0084 9.27199 25.3948 8.59463 25.1995 7.89458C25.1995 7.89455 25.1995 7.89453 25.1995 7.8945L23.6113 2.20538L23.6112 2.2053C23.3617 1.31116 22.6141 0.75 21.8211 0.75H4.17908C3.3855 0.75 2.63791 1.31124 2.38837 2.20533L2.38837 2.20534L0.80052 7.89449C0.800516 7.89451 0.800513 7.89452 0.800509 7.89453C0.605151 8.5947 0.991704 9.27209 1.55478 9.4521L17.813 8.35656ZM17.813 8.35656C17.7832 8.79802 17.548 9.16434 17.2332 9.35288L17.813 8.35656Z" fill="white" stroke="#333E57" stroke-width="1.5"/>
</svg>
