<svg width="60" height="60" viewBox="0 0 60 60" fill="none" xmlns="http://www.w3.org/2000/svg">
<path d="M2 2H58V58H2V2Z" fill="white" stroke="#FF3E79" stroke-width="4"/>
<path d="M22.4995 52.5C25.2609 52.5 27.4994 50.2614 27.4994 47.5C27.4994 44.7386 25.2609 42.5 22.4995 42.5C19.738 42.5 17.4995 44.7386 17.4995 47.5C17.4995 50.2614 19.738 52.5 22.4995 52.5Z" fill="white" stroke="#FF3E79" stroke-width="4" stroke-linecap="round" stroke-linejoin="round"/>
<path d="M42.5 52.5C45.2614 52.5 47.5 50.2614 47.5 47.5C47.5 44.7386 45.2614 42.5 42.5 42.5C39.7386 42.5 37.5 44.7386 37.5 47.5C37.5 50.2614 39.7386 52.5 42.5 52.5Z" fill="white" stroke="#FF3E79" stroke-width="4" stroke-linecap="round" stroke-linejoin="round"/>
<path d="M7.5 7.5H12.5L17.5 37.5C18.0393 39.0337 19.0624 40.3506 20.4151 41.2524C21.7678 42.1542 23.3769 42.5921 25 42.5H42.5C44.1231 42.5921 45.7322 42.1542 47.0849 41.2524C48.4376 40.3506 49.4607 39.0337 50 37.5L52.5 20H14.5" fill="white"/>
<path d="M7.5 7.5H12.5L17.5 37.5C18.0393 39.0337 19.0624 40.3506 20.4151 41.2524C21.7678 42.1542 23.3769 42.5921 25 42.5H42.5C44.1231 42.5921 45.7322 42.1542 47.0849 41.2524C48.4376 40.3506 49.4607 39.0337 50 37.5L52.5 20H14.5" stroke="#FF3E79" stroke-width="4" stroke-linecap="round" stroke-linejoin="round"/>
</svg>
