<svg width="66" height="180" viewBox="0 0 66 180" fill="none" xmlns="http://www.w3.org/2000/svg">
<path d="M46.7264 79.3955C48.1784 79.3955 49.1264 79.3955 50.3864 79.3955C50.3864 73.2395 50.3864 67.2635 50.3864 61.2875C50.3864 58.3895 50.4584 55.4855 50.3624 52.5875C50.2784 50.1275 50.7224 48.2795 54.1724 48.8195C54.1724 46.7975 53.9744 45.0035 54.2564 43.2875C54.3884 42.4775 55.4504 41.8235 56.0864 41.0975C56.6504 41.7935 57.5924 42.4355 57.7064 43.1975C57.9584 44.8535 57.7844 46.5695 57.7844 48.4895C61.3484 48.4175 61.7744 50.5115 61.7384 53.3675C61.6184 63.1655 61.6904 72.9695 61.6964 82.7675C61.6964 83.8535 61.6964 84.9395 61.6964 86.2895C65.4764 85.9235 65.6144 88.0835 65.5784 90.9155C65.4344 101.914 65.4464 112.918 65.5544 123.916C65.6144 129.73 65.4404 135.484 63.8324 141.13C63.4844 142.348 63.5624 143.71 63.5624 145C63.5444 155.104 63.4724 165.202 63.6044 175.3C63.6404 178.204 62.6024 179.32 59.7524 179.086C57.9644 178.936 56.1464 178.942 54.3584 179.08C51.7304 179.284 50.8424 178.162 50.8784 175.582C50.9804 167.284 50.7284 158.974 50.9804 150.682C51.1484 145.186 50.3204 139.99 48.3824 134.872C47.5784 132.754 47.2064 130.474 46.5644 127.984C37.6844 127.984 28.4504 127.984 19.5524 127.984C14.9144 142.642 16.6544 157.594 16.3604 172.408C16.2224 179.458 17.5064 179.05 9.84441 179.062C2.88441 179.074 3.7964 179.29 3.7724 172.852C3.7424 164.95 3.64641 157.048 3.81441 149.152C3.90441 144.79 3.13041 140.698 1.88241 136.534C0.808408 132.97 0.136411 129.16 0.0764107 125.44C-0.115589 113.842 0.124409 102.238 0.0464089 90.6395C0.0284089 87.9335 0.412412 86.0315 4.02441 86.4275C4.02441 83.5355 4.02441 80.8595 4.02441 78.1895C4.02441 69.7895 4.09641 61.3895 3.98241 52.9895C3.94641 50.2835 4.3964 48.3695 7.9064 48.6275C7.9064 46.7915 7.71441 45.0755 7.98441 43.4375C8.12241 42.5915 9.07041 41.8775 9.65241 41.0975C10.2824 41.8415 11.3084 42.5135 11.4524 43.3355C11.7404 44.9735 11.5364 46.6955 11.5364 48.5855C14.9084 48.3815 15.3464 50.2475 15.3044 52.9475C15.1724 61.6415 15.2564 70.3415 15.2564 79.4195C16.5164 79.4735 17.6444 79.5275 19.0424 79.5875C19.1204 78.5375 19.2404 77.6735 19.2404 76.8155C19.2524 65.2235 19.2884 53.6315 19.1924 42.0455C19.1864 40.9715 18.1604 39.9395 17.9144 38.8235C17.6924 37.8155 17.4884 36.4715 17.9684 35.6975C20.3804 31.7915 22.9544 27.9695 25.6184 24.2255C26.6624 22.7615 26.5364 21.7715 25.6124 20.2655C22.8584 15.7715 24.3524 10.2635 29.0564 8.02555C31.0244 7.08955 31.4264 5.93155 31.2764 4.08955C31.2044 3.19555 31.1144 2.22354 31.3964 1.41954C31.6124 0.807545 32.4704 -0.0624554 32.9204 0.00354456C33.6164 0.105545 34.8344 1.04154 34.7564 1.39554C33.8384 5.64954 36.5084 7.56954 39.3884 9.87954C42.5264 12.3995 42.7124 16.8815 40.3604 20.5415C39.4904 21.8915 39.5744 22.7495 40.4324 23.9435C43.0604 27.5915 45.6104 31.2995 48.1724 34.9955C49.3064 36.6335 50.5844 38.3075 47.4824 39.3575C47.1164 39.4835 46.7804 40.3055 46.7804 40.8035C46.7204 53.5895 46.7264 66.3755 46.7264 79.3955ZM12.7064 175.234C12.7064 165.022 12.6644 155.146 12.7364 145.276C12.7544 143.104 13.1564 140.926 13.3904 138.754C13.9784 133.324 14.8244 127.912 15.0944 122.47C15.3944 116.488 15.1664 110.482 15.1544 104.488C15.1544 103.528 15.0644 102.562 15.0104 101.62C11.1224 101.62 7.48641 101.62 3.67041 101.62C3.67041 109.318 3.7904 116.8 3.6224 124.276C3.5324 128.434 4.29441 132.322 5.44641 136.294C6.53241 140.056 7.17441 144.052 7.30641 147.97C7.58241 155.95 7.3904 163.954 7.3904 171.946C7.3904 173.008 7.3904 174.064 7.3904 175.234C9.3224 175.234 10.7984 175.234 12.7064 175.234ZM50.8964 101.548C50.8964 111.37 50.8904 120.94 50.9144 130.516C50.9144 131.092 51.1304 131.704 51.3704 132.244C54.4124 139.066 55.0424 146.23 54.6944 153.604C54.4664 158.392 54.6524 163.198 54.6524 167.998C54.6524 170.362 54.6524 172.732 54.6524 175.168C56.4884 175.168 57.9344 175.168 59.7284 175.168C59.7284 169.744 59.7104 164.476 59.7344 159.208C59.7584 153.412 58.7564 147.364 60.0764 141.874C62.5064 131.776 62.2964 121.678 62.3384 111.508C62.3504 108.232 62.3384 104.956 62.3384 101.536C58.4144 101.548 54.8504 101.548 50.8964 101.548ZM46.9004 101.602C37.3964 101.602 28.2584 101.602 19.0364 101.602C19.0364 109.126 19.0364 116.452 19.0364 123.79C28.4504 123.79 37.6484 123.79 46.9004 123.79C46.9004 116.266 46.9004 109.012 46.9004 101.602ZM3.90441 97.5335C23.3624 97.5335 42.5864 97.5335 61.8104 97.5335C61.8104 95.0015 61.8104 92.6855 61.8104 90.3995C42.3944 90.3995 23.2424 90.3995 3.90441 90.3995C3.90441 92.7455 3.90441 95.0075 3.90441 97.5335ZM42.6764 64.8395C42.6764 56.1395 42.6764 47.8175 42.6764 39.4295C35.9984 39.4295 29.5544 39.4295 23.0684 39.4295C23.0684 47.9855 23.0684 56.3315 23.0684 64.8395C29.6744 64.8395 36.1004 64.8395 42.6764 64.8395ZM23.0624 79.3235C29.7224 79.3235 36.2144 79.3235 42.6764 79.3235C42.6764 75.7055 42.6764 72.3695 42.6764 69.0275C36.0164 69.0275 29.5904 69.0275 23.0624 69.0275C23.0624 72.5735 23.0624 75.9095 23.0624 79.3235ZM43.8164 35.3015C41.3084 31.6955 39.4664 27.9935 36.6164 25.3895C35.2544 24.1475 31.0064 23.9735 29.7764 25.1315C26.9084 27.8315 25.0784 31.6295 22.6184 35.3015C29.8904 35.3015 36.6044 35.3015 43.8164 35.3015ZM8.02641 52.7315C8.02641 64.0295 8.02641 75.1535 8.02641 86.2655C9.28641 86.2655 10.3244 86.2655 11.4164 86.2655C11.4164 75.0035 11.4164 63.9455 11.4164 52.7315C10.2164 52.7315 9.18441 52.7315 8.02641 52.7315ZM57.6284 86.3495C57.6284 74.9135 57.6284 63.8195 57.6284 52.5455C56.3204 52.6235 55.2884 52.6835 54.3404 52.7435C54.3404 64.1735 54.3404 75.2675 54.3404 86.3495C55.5584 86.3495 56.5304 86.3495 57.6284 86.3495ZM15.4124 86.2775C27.2324 86.2775 38.6624 86.2775 50.3264 86.2775C50.2784 85.2395 50.2364 84.4055 50.2004 83.5835C38.4464 83.5835 26.9384 83.5835 15.2984 83.5835C15.3404 84.6035 15.3704 85.3655 15.4124 86.2775ZM38.0744 15.6635C38.0324 12.7415 35.8244 10.6475 32.8784 10.7375C30.0884 10.8215 28.0064 12.9275 27.9764 15.6995C27.9464 18.4355 30.3584 20.8955 33.0644 20.8895C35.8424 20.8775 38.1164 18.5075 38.0744 15.6635Z" fill="#3F3D56"/>
<path d="M45.1723 152.638C45.1483 159.196 39.8683 164.446 33.3223 164.422C26.7703 164.398 21.5263 159.1 21.5563 152.536C21.5803 146.002 26.9323 140.68 33.4243 140.734C39.9823 140.788 45.1903 146.068 45.1723 152.638ZM33.4183 144.508C28.8043 144.484 25.2523 148.018 25.2643 152.62C25.2763 157.042 28.7623 160.624 33.1783 160.744C37.6243 160.864 41.4643 157.174 41.5303 152.716C41.6023 148.204 37.9723 144.532 33.4183 144.508Z" fill="#3F3D56"/>
<path d="M26.5964 112.486C26.5964 111.1 26.3803 109.66 26.6864 108.34C26.8544 107.608 27.8984 107.074 28.5404 106.456C29.0864 107.068 30.0644 107.656 30.1004 108.298C30.2744 111.16 30.2744 114.046 30.1064 116.914C30.0704 117.55 29.1044 118.132 28.5644 118.738C27.9044 118.138 26.8304 117.628 26.6804 116.926C26.3864 115.504 26.5964 113.974 26.5964 112.486Z" fill="#3F3D56"/>
<path d="M35.5305 112.486C35.5305 111.094 35.3565 109.672 35.6025 108.328C35.7285 107.632 36.6105 107.08 37.1505 106.456C37.8045 107.062 38.9806 107.632 39.0286 108.286C39.2386 111.154 39.2386 114.052 39.0346 116.914C38.9866 117.562 37.8285 118.132 37.1805 118.738C36.6285 118.144 35.7165 117.61 35.6025 116.938C35.3625 115.498 35.5305 113.98 35.5305 112.486Z" fill="#3F3D56"/>
<path d="M39.9164 53.5114C39.8024 62.5054 41.0983 61.0954 32.1343 61.2214C31.7383 61.2274 31.3363 61.2214 30.9403 61.2214C26.5843 61.2154 26.5783 61.2154 26.5783 56.9434C26.5783 54.1534 26.5183 51.3634 26.5963 48.5734C26.7043 44.6494 29.4103 41.9614 33.1843 41.9194C36.9523 41.8774 39.7063 44.5054 39.9103 48.4234C39.9883 50.1214 39.9164 51.8194 39.9164 53.5114ZM36.2023 57.4774C36.2023 54.2794 36.4603 51.3634 36.0703 48.5374C35.9203 47.4514 34.4143 45.9874 33.3283 45.7894C32.5003 45.6394 30.5983 47.1274 30.4903 48.0334C30.1303 51.1354 30.3523 54.2974 30.3523 57.4774C32.4103 57.4774 34.0843 57.4774 36.2023 57.4774Z" fill="#3F3D56"/>
</svg>
