<svg width="68" height="178" viewBox="0 0 68 178" fill="none" xmlns="http://www.w3.org/2000/svg">
<path d="M24.4923 51.1719C20.9643 47.6619 22.9443 43.5819 22.9743 39.6939C22.9743 39.3999 22.9923 38.9738 23.1723 38.8358C27.0123 36.0278 25.0743 31.9599 25.3263 28.4439C25.5663 25.0599 25.7703 21.9459 27.4503 18.7059C28.6263 16.4319 27.7923 13.0539 27.6663 10.1799C27.4683 5.63785 31.0623 3.20785 33.2883 0.0458519C33.4503 -0.182148 35.5383 0.477854 36.2583 1.19185C40.5303 5.44585 40.8363 10.8579 40.3683 16.4439C40.3083 17.1339 39.9603 18.0938 40.2843 18.4839C44.2983 23.3379 41.9883 29.0859 42.6963 34.3959C42.8523 35.5659 43.7043 36.6339 44.1663 37.7799C44.5563 38.7579 44.9823 39.7599 45.1443 40.7919C45.7143 44.3319 46.5663 47.9259 44.1963 50.5899C48.2643 53.3739 52.5243 55.6539 55.9983 58.8099C61.8903 64.1618 64.5003 71.2478 64.6683 79.1859C64.7343 82.1798 64.6023 85.1739 64.6263 88.1739C64.6323 88.8339 64.6863 89.6559 65.0643 90.1299C67.7163 93.4839 67.8243 97.3359 65.3463 100.534C64.9683 101.02 64.8603 101.818 64.8603 102.466C64.8303 114.16 64.8423 125.854 64.8423 137.752C69.0243 138.106 67.5603 141.244 67.8723 143.62C68.1903 146.038 66.7683 146.782 64.6023 147.076C64.6023 155.986 64.6383 164.77 64.5723 173.554C64.5603 175.294 65.3163 178.03 62.4723 177.928C59.8923 177.832 60.7383 175.21 60.7263 173.566C60.6603 164.788 60.6963 156.016 60.6963 146.806C55.6563 146.806 50.8983 146.806 46.1343 146.806C44.3343 146.806 42.4923 147.04 40.7523 146.716C39.6003 146.5 38.6043 145.486 37.5363 144.826C38.5743 144.166 39.6003 142.966 40.6563 142.942C47.4483 142.768 54.2523 142.852 61.0503 142.852C61.8303 142.852 62.6103 142.852 63.3903 142.852C63.4083 142.642 63.4323 142.432 63.4503 142.222C62.4843 142.174 61.5243 142.096 60.5583 142.09C54.1563 142.078 47.7603 142.066 41.3583 142.096C39.5163 142.102 37.9923 142.018 36.7683 140.116C35.3703 137.938 33.1443 138.298 31.1703 140.134C30.1383 141.094 28.5663 141.952 27.2103 141.994C21.1203 142.192 15.0123 142.078 8.91629 142.078C7.57229 142.078 6.22229 142.078 4.87829 142.078C4.87829 142.33 4.87829 142.588 4.88429 142.84C11.9583 142.84 19.0323 142.798 26.1003 142.87C27.7383 142.888 30.3483 142.012 30.4203 144.658C30.4983 147.526 27.7863 146.74 26.0523 146.764C19.9683 146.842 13.8903 146.794 7.39228 146.794C7.39228 148.162 7.39228 149.23 7.39228 150.292C7.39228 158.494 7.45828 166.69 7.30828 174.886C7.29028 175.954 6.23428 177.808 5.49028 177.898C3.58228 178.12 3.61828 176.344 3.61828 174.91C3.61828 165.718 3.61828 156.526 3.61828 147.148C-0.803716 146.8 -0.0837109 143.524 0.276289 140.896C0.450289 139.588 1.92628 138.454 2.82028 137.236C3.12628 137.38 3.42629 137.53 3.73229 137.674C3.73229 125.884 3.73829 114.1 3.71429 102.31C3.71429 101.752 3.61829 101.044 3.28229 100.666C0.420286 97.4499 0.402282 93.4838 3.13828 90.0518C3.60628 89.4639 3.55229 88.3839 3.57629 87.5259C3.72629 83.0439 3.24629 78.4539 4.04429 74.0919C5.99429 63.4899 12.2523 56.1279 22.3383 52.1199C22.9503 51.8859 23.5623 51.5859 24.4923 51.1719ZM7.48828 83.9199C25.2963 83.9199 42.9003 83.9199 60.5883 83.9199C61.5483 72.4839 58.0983 63.1179 48.0003 57.5919C37.9743 52.1019 27.5163 52.3659 17.9463 58.9539C9.32429 64.8819 6.58228 73.6539 7.48828 83.9199ZM7.93229 100.648C7.93229 113.212 7.93229 125.548 7.93229 137.854C13.0563 138.382 13.0563 138.382 15.4323 134.53C23.9523 120.712 44.2743 120.766 52.7583 134.632C55.1343 138.514 55.7823 138.76 60.6903 137.644C60.6903 125.398 60.6903 113.128 60.6903 100.648C43.1103 100.648 25.6623 100.648 7.93229 100.648ZM49.8543 138.076C46.8363 131.422 39.5883 127.396 32.5263 128.146C25.8123 128.854 19.6803 133.162 18.5703 138.082C19.6983 138.082 20.7903 138.088 21.8823 138.082C24.9183 138.058 27.8223 138.364 30.4623 135.856C32.6223 133.798 36.4503 134.62 39.0183 136.66C39.8163 137.29 40.8303 137.95 41.7903 138.022C44.3703 138.202 46.9683 138.076 49.8543 138.076ZM38.5803 37.1079C38.5803 32.5179 38.7543 28.1499 38.5143 23.8119C38.3823 21.3699 36.4923 20.3319 34.1043 20.2779C31.6803 20.2239 29.7363 21.3399 29.5683 23.6799C29.2563 28.0959 29.4783 32.5539 29.4783 37.1079C32.5923 37.1079 35.3463 37.1079 38.5803 37.1079ZM4.81229 95.4758C5.02829 95.7878 5.25029 96.1059 5.46629 96.4179C24.6183 96.4179 43.7703 96.4179 62.8803 96.4179C63.5223 93.7598 61.6983 94.2458 60.4083 94.2398C47.3103 94.2159 34.2183 94.2279 21.1203 94.2279C16.5243 94.2279 11.9223 94.1618 7.32629 94.2819C6.48029 94.3059 5.65229 95.0618 4.81229 95.4758ZM33.9723 88.2699C25.8843 88.2699 17.7963 88.2459 9.71429 88.3059C8.96429 88.3119 8.21428 88.8399 7.47028 89.1279C8.22028 89.5359 8.96428 90.3039 9.72028 90.3039C25.8963 90.3759 42.0663 90.3759 58.2423 90.3099C59.0343 90.3099 59.8203 89.6319 60.6063 89.2659C59.8203 88.9298 59.0343 88.3179 58.2423 88.3119C50.1483 88.2399 42.0603 88.2699 33.9723 88.2699ZM26.4363 44.8719C31.6983 44.8719 36.5163 44.8719 41.5863 44.8719C41.4783 43.6599 41.3943 42.6339 41.2983 41.5719C36.3243 41.5719 31.6263 41.5719 26.7663 41.5719C26.6523 42.7239 26.5563 43.6779 26.4363 44.8719ZM31.8423 10.3359C31.8423 11.8239 31.8423 13.3179 31.8423 14.9019C33.3603 14.9019 34.7883 14.9019 36.3543 14.9019C36.3543 13.3059 36.3543 11.8779 36.3543 10.3359C34.8183 10.3359 33.4563 10.3359 31.8423 10.3359ZM27.7863 49.2519C30.0183 50.7758 38.5503 50.6438 39.9183 49.2519C35.9403 49.2519 32.0763 49.2519 27.7863 49.2519Z" fill="#3F3D56"/>
<path d="M28.3262 161.122C28.3262 158.026 28.2662 154.924 28.3442 151.834C28.4282 148.342 30.9482 145.936 34.2482 146.05C37.4582 146.158 39.6782 148.492 39.7022 151.936C39.7442 158.032 39.6602 164.122 39.7502 170.218C39.7862 172.558 38.8322 173.422 36.5462 173.392C27.1682 173.254 28.4042 174.454 28.3322 165.322C28.3142 163.918 28.3262 162.52 28.3262 161.122ZM35.8922 169.228C35.8922 163.264 35.9522 157.612 35.8082 151.96C35.7902 151.306 34.6562 150.682 34.0382 150.04C33.4742 150.604 32.4362 151.156 32.4242 151.732C32.3042 157.558 32.3522 163.39 32.3522 169.228C33.6662 169.228 34.5482 169.228 35.8922 169.228Z" fill="#3F3D56"/>
<path d="M48.6124 163.114C48.6124 160.816 48.6784 158.518 48.5884 156.22C48.4984 153.976 49.3024 152.776 51.7084 153.022C52.3984 153.094 53.1124 153.1 53.8024 153.016C56.6884 152.656 57.7504 153.898 57.6424 156.778C57.4744 161.17 57.5404 165.568 57.6244 169.966C57.6724 172.342 56.8084 173.572 54.3004 173.374C53.3044 173.296 52.3024 173.338 51.3064 173.362C49.4044 173.41 48.5884 172.456 48.6124 170.608C48.6364 168.106 48.6124 165.61 48.6124 163.114ZM52.7584 168.97C52.9504 168.982 53.1424 168.994 53.3344 169.006C53.3344 165.082 53.3344 161.164 53.3344 157.24C53.1424 157.234 52.9504 157.234 52.7584 157.228C52.7584 161.146 52.7584 165.058 52.7584 168.97Z" fill="#3F3D56"/>
<path d="M19.4763 163.108C19.4763 165.502 19.4343 167.902 19.4883 170.296C19.5303 172.378 18.7383 173.542 16.5003 173.368C16.3023 173.35 16.0983 173.362 15.9003 173.368C10.5423 173.44 10.5303 173.428 10.5303 168.16C10.5303 164.17 10.5783 160.174 10.5183 156.184C10.4823 153.934 11.3403 152.998 13.7043 152.986C19.4823 152.968 19.4823 152.878 19.4823 158.62C19.4823 160.114 19.4823 161.614 19.4823 163.108C19.4883 163.108 19.4823 163.108 19.4763 163.108ZM14.7243 169.066C14.8983 169.054 15.0723 169.048 15.2403 169.036C15.2403 165.082 15.2403 161.122 15.2403 157.168C15.0663 157.18 14.8923 157.192 14.7243 157.204C14.7243 161.152 14.7243 165.106 14.7243 169.066Z" fill="#3F3D56"/>
<path d="M22.3083 163.042C22.3143 160.558 22.1463 158.05 22.3983 155.59C22.4883 154.696 23.5863 153.904 24.2223 153.064C24.8943 153.886 26.1183 154.684 26.1483 155.53C26.3283 160.594 26.3343 165.676 26.1483 170.74C26.1183 171.616 24.9243 172.456 24.2703 173.308C23.6103 172.372 22.5003 171.49 22.3863 170.488C22.1223 168.034 22.3023 165.526 22.3083 163.042Z" fill="#3F3D56"/>
<path d="M46.1522 163.18C46.1522 165.67 46.3202 168.178 46.0682 170.644C45.9722 171.58 44.9102 172.42 44.2862 173.308C43.5722 172.414 42.2822 171.55 42.2462 170.626C42.0422 165.652 42.0602 160.66 42.2342 155.686C42.2642 154.792 43.3922 153.94 44.0102 153.07C44.7242 153.952 45.9422 154.768 46.0562 155.722C46.3442 158.176 46.1522 160.69 46.1522 163.18Z" fill="#3F3D56"/>
<path d="M24.9243 113.032C24.9243 115.822 24.9063 118.606 24.9303 121.396C24.9483 123.364 24.1083 124.192 22.0563 124.264C14.7303 124.522 14.7363 124.582 14.7363 117.154C14.7363 113.074 14.7903 108.988 14.7123 104.908C14.6703 102.52 15.6423 101.542 18.0843 101.506C24.9423 101.41 24.9423 101.338 24.9363 108.256C24.9363 109.846 24.9363 111.442 24.9363 113.032C24.9303 113.032 24.9303 113.032 24.9243 113.032ZM21.0483 112.882C21.0483 110.89 21.1203 108.892 20.9943 106.912C20.9643 106.45 20.2443 106.036 19.8423 105.604C19.4583 106.054 18.7503 106.492 18.7383 106.948C18.6483 110.932 18.6483 114.916 18.7383 118.9C18.7503 119.35 19.4763 119.788 19.8723 120.226C20.2623 119.77 20.9583 119.338 20.9883 118.858C21.1203 116.872 21.0483 114.874 21.0483 112.882Z" fill="#3F3D56"/>
<path d="M53.2864 113.02C53.2864 115.72 53.2504 118.42 53.2984 121.12C53.3344 123.172 52.6384 124.288 50.3464 124.252C42.1684 124.126 43.2244 125.074 43.1824 117.328C43.1584 113.128 43.2484 108.928 43.1524 104.728C43.0984 102.406 44.0524 101.56 46.3444 101.506C53.2864 101.356 53.2864 101.29 53.2864 108.22C53.2864 109.822 53.2864 111.418 53.2864 113.02ZM49.3084 105.976C48.9724 105.748 48.6364 105.52 48.3004 105.286C47.8564 105.97 47.0464 106.636 47.0224 107.332C46.8964 111.022 46.9024 114.724 47.0224 118.42C47.0404 119.05 47.8144 119.65 48.2404 120.268C48.5944 119.686 49.2484 119.116 49.2604 118.528C49.3504 114.346 49.3084 110.158 49.3084 105.976Z" fill="#3F3D56"/>
</svg>
