<svg width="182" height="179" viewBox="0 0 182 179" fill="none" xmlns="http://www.w3.org/2000/svg">
<path d="M82.0008 22.6965C82.0008 20.2665 81.9948 17.7825 82.0008 15.3045C82.0128 11.2725 82.1688 11.1165 86.2068 10.9725C86.6928 10.9545 87.1788 10.8825 88.0068 10.8045C88.0068 8.27246 88.0308 5.80047 87.9948 3.32846C87.9708 1.72646 88.0788 0.0944643 90.0948 0.00446429C92.4348 -0.103536 92.3688 1.76846 92.3868 3.40046C92.4108 5.78846 92.3928 8.17047 92.3928 10.3785C92.8248 10.6665 92.9808 10.8645 93.1368 10.8645C99.3768 10.9785 98.2488 11.9805 98.3388 16.6965C98.3808 18.6765 98.3448 20.6625 98.3448 22.5885C103.349 23.5245 103.271 23.5245 103.355 28.6185C103.547 39.9945 103.367 51.4065 104.213 62.7405C104.897 71.8665 106.889 80.8905 108.221 89.9745C108.461 91.6065 109.145 92.1705 110.759 92.1045C113.357 92.0025 115.955 92.0745 118.559 92.0745C120.623 92.0745 121.685 92.9565 121.625 95.1645C121.535 98.5605 121.481 101.968 121.637 105.364C121.757 108.022 120.641 109.012 118.097 108.832C116.711 108.736 115.307 108.814 113.231 108.814C114.737 112.906 116.045 116.704 117.587 120.4C117.797 120.904 119.123 121.132 119.939 121.156C122.939 121.24 125.939 121.18 128.939 121.192C132.629 121.21 132.935 121.51 132.953 125.068C132.965 128.068 132.827 131.074 132.995 134.068C133.157 136.942 132.011 138.172 129.161 137.938C128.081 137.848 126.989 137.926 125.537 137.926C125.921 138.934 126.071 139.696 126.461 140.308C133.091 150.754 139.697 161.218 146.471 171.568C147.131 172.576 148.829 173.356 150.089 173.422C154.253 173.65 158.435 173.506 162.965 173.506C162.965 169.738 163.127 166.258 162.845 162.814C162.779 162.01 161.297 161.044 160.271 160.642C154.601 158.422 150.791 153.37 150.509 147.424C150.239 141.79 153.743 136.12 159.011 133.684C166.499 130.222 175.277 133.612 178.553 141.238C181.733 148.636 178.175 157.498 170.525 160.27C167.855 161.236 166.955 162.442 167.201 165.154C167.441 167.806 167.255 170.494 167.255 173.506C170.561 173.506 173.543 173.374 176.501 173.554C178.343 173.668 181.343 172.354 181.439 175.642C181.535 179.08 178.427 177.844 176.639 177.856C155.645 177.946 134.657 177.916 113.663 177.916C82.1628 177.916 50.6628 177.916 19.1628 177.91C14.1708 177.91 9.17877 177.916 4.18077 177.904C2.61477 177.898 0.946771 177.802 0.994771 175.684C1.04277 173.644 2.61477 173.482 4.23477 173.5C6.82077 173.53 9.40077 173.506 12.3948 173.506C12.3948 169.732 12.5568 166.156 12.2688 162.622C12.2028 161.848 10.6308 160.96 9.58077 160.552C4.06077 158.38 0.29877 153.406 0.15477 147.478C0.0047701 141.31 2.71077 136.654 8.24277 133.864C15.6048 130.15 24.6468 133.45 27.9408 140.92C31.2948 148.528 27.8808 157.366 20.0928 160.246C17.4168 161.236 16.6068 162.496 16.8468 165.166C17.0868 167.818 16.9008 170.506 16.9008 173.494C22.0128 173.494 26.7888 173.542 31.5588 173.44C32.2128 173.428 33.0288 172.84 33.4608 172.282C41.5668 161.836 48.7008 150.766 54.5688 138.904C54.6468 138.748 54.5988 138.526 54.6228 138.094C53.7708 138.034 52.9188 137.932 52.0668 137.926C47.6448 137.872 47.3988 137.626 47.3928 133.072C47.3868 130.072 47.3928 127.072 47.3988 124.072C47.4048 122.116 48.3168 121.15 50.3508 121.186C53.7528 121.24 57.1548 121.264 60.5508 121.144C61.3728 121.114 62.6508 120.67 62.9028 120.07C64.4028 116.524 65.6628 112.876 67.1748 108.802C64.8828 108.802 63.2088 108.772 61.5288 108.808C59.6448 108.856 58.7448 107.926 58.7388 106.096C58.7208 102.394 58.7328 98.6985 58.7268 94.9965C58.7268 93.0045 59.7708 92.0805 61.7148 92.0805C64.2168 92.0745 66.7248 91.9245 69.2088 92.1105C71.2848 92.2665 71.9568 91.3365 72.3348 89.5065C75.2928 75.1785 77.0328 60.7185 77.1408 46.0845C77.1888 40.0845 77.1468 34.0845 77.1468 28.0845C77.1528 23.3445 77.1528 23.3445 82.0008 22.6965ZM141.029 173.368C134.357 162.01 127.721 150.658 120.977 139.366C120.539 138.634 119.285 137.986 118.409 137.986C99.6288 137.908 80.8428 137.902 62.0628 138.01C61.0908 138.016 59.7348 138.952 59.2128 139.84C55.5468 146.014 52.2048 152.386 48.4668 158.512C45.4248 163.504 41.9748 168.244 38.5668 173.302C47.3268 173.302 55.8228 173.302 64.3068 173.302C65.0988 156.52 73.7448 145.864 87.3048 144.742C93.9408 144.19 100.061 145.702 105.353 149.746C113.081 155.644 116.195 163.744 115.625 173.374C124.499 173.368 133.037 173.368 141.029 173.368ZM110.705 173.344C112.607 167.458 109.181 157.846 102.509 153.076C95.4408 148.024 85.9008 147.67 78.5448 152.392C71.4168 156.97 67.5468 165.58 69.2388 173.344C83.0448 173.344 96.8927 173.344 110.705 173.344ZM128.495 125.716C102.821 125.716 77.4828 125.716 52.1388 125.716C52.1388 128.368 52.1388 130.81 52.1388 133.222C77.6928 133.222 103.019 133.222 128.495 133.222C128.495 130.63 128.495 128.272 128.495 125.716ZM63.3528 104.326C81.4848 104.326 99.2268 104.326 117.095 104.326C117.095 101.71 117.095 99.2805 117.095 96.8325C99.0528 96.8325 81.2268 96.8325 63.3528 96.8325C63.3528 99.4185 63.3528 101.782 63.3528 104.326ZM16.8588 156.652C22.6428 154.966 25.6008 150.322 24.6408 145.132C23.6688 139.882 19.2288 136.426 13.9068 136.762C8.81877 137.086 4.77477 141.208 4.52277 146.314C4.27077 151.438 7.49277 155.668 12.4068 156.436C12.4068 155.116 12.1008 153.724 12.4968 152.572C12.8388 151.588 13.9728 150.874 14.7588 150.04C15.4548 150.868 16.4868 151.594 16.7688 152.542C17.1288 153.718 16.8588 155.074 16.8588 156.652ZM162.995 156.646C162.995 155.032 162.755 153.58 163.079 152.272C163.289 151.432 164.333 150.802 165.005 150.076C165.749 150.82 166.883 151.45 167.141 152.332C167.507 153.598 167.237 155.05 167.237 156.466C172.241 155.692 175.589 151.324 175.283 146.326C174.965 141.148 170.975 137.104 165.863 136.774C160.673 136.438 156.005 139.984 155.177 144.88C154.235 150.46 157.109 155.038 162.995 156.646ZM75.9468 91.9185C85.7388 91.9185 94.7568 91.9185 104.411 91.9185C101.825 84.1425 94.7748 80.8125 90.2448 74.8725C85.9608 79.2525 81.9828 83.1645 78.2208 87.2685C77.1948 88.3845 76.8168 90.0825 75.9468 91.9185ZM98.7168 59.9745C95.9688 57.1245 93.1488 54.2025 90.2928 51.2385C87.4488 54.1965 84.6348 57.1245 82.1088 59.7465C84.7848 62.4705 87.6708 65.4105 90.4008 68.1885C93.1368 65.4945 96.0228 62.6385 98.7168 59.9745ZM85.1628 109.102C84.1368 113.008 83.0988 116.938 82.0188 121.042C87.3408 121.042 92.3868 121.042 98.0088 121.042C96.7668 116.878 95.6088 113.008 94.4568 109.144C91.5828 109.06 88.7148 108.97 85.8408 108.892C85.7448 108.886 85.6548 108.946 85.1628 109.102ZM81.6708 27.6105C81.6708 30.0105 81.6708 32.2245 81.6708 34.5285C87.4428 34.5285 92.9868 34.5285 98.6388 34.5285C98.6388 32.1225 98.6388 29.8905 98.6388 27.6105C92.8908 27.6105 87.3528 27.6105 81.6708 27.6105ZM102.485 120.994C106.121 120.994 109.355 120.994 112.829 120.994C111.395 116.818 110.045 112.894 108.737 109.102C105.545 109.102 102.539 109.102 99.2928 109.102C100.415 113.278 101.441 117.118 102.485 120.994ZM67.5288 121.186C70.4988 121.186 73.0848 121.276 75.6648 121.126C76.3728 121.084 77.4828 120.484 77.6568 119.908C78.7428 116.338 79.6188 112.702 80.6328 108.82C77.9268 108.82 75.6288 108.7 73.3668 108.886C72.6048 108.952 71.5128 109.66 71.2488 110.338C69.9348 113.758 68.8488 117.256 67.5288 121.186ZM86.6088 15.5985C86.6088 18.1425 86.6088 20.4525 86.6088 22.7325C89.1768 22.7325 91.4928 22.7325 93.8268 22.7325C93.8268 20.2545 93.8268 18.0105 93.8268 15.5985C91.4208 15.5985 89.1828 15.5985 86.6088 15.5985ZM80.5488 65.8065C79.8828 70.8285 79.2828 75.3645 78.6768 79.9545C81.4488 77.2605 84.1188 74.6625 86.8608 71.9985C84.8748 70.0485 82.9248 68.1345 80.5488 65.8065ZM101.687 80.1585C101.069 75.2805 100.529 70.9905 99.9708 66.7005C99.9468 66.5325 99.8028 66.3825 99.7908 66.3525C97.7628 68.2305 95.7108 70.1265 94.0848 71.6265C96.6168 74.4645 98.9688 77.1105 101.687 80.1585ZM81.6588 42.5085C81.6588 46.1685 81.6588 49.4985 81.6588 52.9245C83.5068 51.1185 85.2348 49.4325 86.7648 47.9385C85.0908 46.1625 83.5248 44.4945 81.6588 42.5085ZM90.4368 44.0745C91.8888 42.6285 93.5208 40.9965 95.2848 39.2325C91.9008 39.2325 88.6908 39.2325 85.6188 39.2325C87.1968 40.8165 88.7688 42.4005 90.4368 44.0745ZM98.6088 53.0025C98.6088 49.3005 98.6088 46.2465 98.6088 43.5225C97.0248 45.0285 95.4288 46.5465 93.9528 47.9505C95.3388 49.4565 96.7968 51.0405 98.6088 53.0025Z" fill="#3F3D56"/>
<path d="M179.345 81.3405C179.297 89.8365 170.567 95.3325 162.749 91.9125C161.333 91.2945 159.605 91.3605 158.009 91.1865C154.679 90.8205 151.337 90.1605 148.019 90.2625C144.845 90.3645 141.677 91.8285 138.539 91.7265C132.971 91.5525 128.459 86.6865 127.769 81.0045C127.127 75.7125 130.319 70.2945 135.515 68.4945C137.567 67.7805 138.677 66.6045 139.763 64.8285C143.549 58.6065 149.291 55.8525 156.479 56.5605C163.427 57.2445 168.203 61.0245 171.011 67.4685C171.665 68.9685 172.895 70.4085 174.215 71.3985C177.449 73.8045 179.369 77.1945 179.345 81.3405ZM154.655 60.7305C149.249 60.7305 144.617 63.8985 142.445 69.2805C141.785 70.9125 141.077 71.8845 139.115 72.0825C135.509 72.4485 132.965 74.8005 132.395 77.9505C131.795 81.2685 132.665 84.0945 135.533 86.0985C138.359 88.0785 141.419 87.8445 144.767 85.8525C145.727 85.2825 147.431 85.1325 148.433 85.5885C151.985 87.2025 155.447 87.4725 159.209 86.3865C160.391 86.0445 162.107 86.4165 163.193 87.0885C167.039 89.4765 171.731 88.6605 173.927 84.9645C176.243 81.0645 174.803 76.1925 170.477 74.5125C168.467 73.7325 167.789 72.5505 167.315 70.6845C165.791 64.6845 160.661 60.7245 154.655 60.7305Z" fill="#3F3D56"/>
<path d="M39.3828 91.8525C39.0828 91.8525 38.7288 91.9605 38.4948 91.8345C33.9588 89.5305 29.3448 91.1325 24.7068 91.3005C21.1908 91.4265 17.8668 91.1925 14.3388 92.4465C8.98676 94.3485 3.26276 91.1145 0.922755 85.7445C-1.28524 80.6805 0.604756 74.6445 5.14676 71.4165C6.48476 70.4685 7.69676 69.0045 8.35676 67.5045C11.2488 60.9825 16.1028 57.1485 23.1948 56.5545C30.5268 55.9365 36.1068 58.9845 40.0608 65.2425C40.8648 66.5145 42.2748 67.6905 43.6668 68.2485C49.3428 70.5345 52.5948 76.1685 51.4188 82.1925C50.3028 87.8445 45.2208 91.9425 39.3828 91.8525ZM24.9108 87.0885C24.9408 87.1905 24.9708 87.2925 24.9948 87.3945C26.7048 86.9025 28.5828 86.7105 30.0768 85.8465C32.1228 84.6645 33.5508 84.8565 35.4288 86.2605C37.9848 88.1685 41.5848 87.8565 44.1108 85.9545C46.7688 83.9445 47.7588 81.1905 47.0508 78.0045C46.3368 74.7945 44.1768 72.6225 40.9428 72.1845C38.7588 71.8905 37.6668 71.1285 36.8568 69.0585C34.7568 63.7065 29.5788 60.4725 24.1728 60.7725C18.3048 61.0965 13.5828 64.8045 12.1008 70.6905C11.5728 72.7845 10.6128 73.8165 8.65676 74.6385C5.09876 76.1265 3.55675 80.1405 4.81675 83.6505C6.12475 87.2865 10.4268 90.0165 13.6668 88.0605C17.2968 85.8645 20.4708 86.2905 24.0168 87.0945C24.2988 87.1425 24.6108 87.0885 24.9108 87.0885Z" fill="#3F3D56"/>
</svg>
