<svg width="18" height="18" viewBox="0 0 18 18" fill="none" xmlns="http://www.w3.org/2000/svg">
<path d="M6.08581 7.78121C7.95839 7.78121 9.47642 6.26319 9.47642 4.39061C9.47642 2.51803 7.95839 1 6.08581 1C4.21323 1 2.69521 2.51803 2.69521 4.39061C2.69521 6.26319 4.21323 7.78121 6.08581 7.78121Z" stroke="#475168" stroke-width="1.5" stroke-linecap="round" stroke-linejoin="round"/>
<path d="M1 16.2577V14.5624C1 13.6632 1.35722 12.8008 1.99309 12.1649C2.62895 11.529 3.49136 11.1718 4.39061 11.1718H7.78121C8.68046 11.1718 9.54287 11.529 10.1787 12.1649C10.8146 12.8008 11.1718 13.6632 11.1718 14.5624V16.2577" stroke="#475168" stroke-width="1.5" stroke-linecap="round" stroke-linejoin="round"/>
<path d="M12.0196 1.11017C12.7489 1.29691 13.3953 1.72107 13.857 2.31579C14.3186 2.91051 14.5692 3.64196 14.5692 4.39482C14.5692 5.14768 14.3186 5.87913 13.857 6.47385C13.3953 7.06857 12.7489 7.49273 12.0196 7.67947" stroke="#475168" stroke-width="1.5" stroke-linecap="round" stroke-linejoin="round"/>
<path d="M16.2577 16.2577V14.5624C16.2534 13.814 16.0017 13.0881 15.5417 12.4978C15.0817 11.9075 14.4394 11.486 13.7148 11.2989" stroke="#475168" stroke-width="1.5" stroke-linecap="round" stroke-linejoin="round"/>
</svg>
