<svg width="64" height="44" viewBox="0 0 64 44" fill="none" xmlns="http://www.w3.org/2000/svg">
<path d="M49 31L56 38L63 31" stroke="#FF3E79" stroke-width="1.5" stroke-linecap="round" stroke-linejoin="round"/>
<path d="M8.19351 38.5122C8.19351 38.5122 15.6845 35.5983 15.7725 33.6833C15.8607 31.7683 15.9489 31.6018 15.7725 31.352C15.5963 31.1023 13.5695 27.9385 13.3931 26.6896C13.3931 26.6896 11.4543 23.5258 13.0407 20.1955C13.0407 20.1955 12.6881 15.3665 13.4813 13.951C14.2744 12.5358 16.5658 9.70493 21.8534 9.95471C27.1412 10.2045 28.9919 12.619 29.2563 13.2851C29.5206 13.951 29.9612 14.8669 29.9612 17.0316C29.8731 19.1964 29.6087 20.029 30.1374 20.4453C30.6663 20.7783 31.5475 25.6073 29.1681 26.8562C29.1681 26.8562 27.67 30.3529 26.5243 31.4353C26.5243 31.4353 25.8192 34.2661 27.4936 35.182C29.1681 36.0978 34.7202 38.8453 34.7202 38.8453" stroke="#F9357C" stroke-width="1.5" stroke-miterlimit="10"/>
<path d="M21.3586 43.1213C32.6023 43.1213 41.7172 33.692 41.7172 22.0606C41.7172 10.4291 32.6023 1 21.3586 1C10.1149 1 1 10.4291 1 22.0606C1 33.692 10.1149 43.1213 21.3586 43.1213Z" stroke="#F9357C" stroke-width="1.5" stroke-miterlimit="10"/>
</svg>
