<svg width="26" height="26" viewBox="0 0 26 26" fill="none" xmlns="http://www.w3.org/2000/svg">
<path d="M23.7245 25.2015L23.7359 25.1985L23.7245 25.2015Z" fill="#333E57" stroke="black" stroke-width="1.5"/>
<mask id="path-2-inside-1_2599_334" fill="white">
<path d="M6.61281 3.66967H12.6344C12.8447 3.66967 13.0153 3.49915 13.0153 3.28882C13.0153 3.07848 12.8447 2.90796 12.6344 2.90796H6.61276C6.40243 2.90796 6.2319 3.07848 6.2319 3.28882C6.2319 3.49915 6.40248 3.66967 6.61281 3.66967Z"/>
</mask>
<path d="M6.61281 3.66967H12.6344C12.8447 3.66967 13.0153 3.49915 13.0153 3.28882C13.0153 3.07848 12.8447 2.90796 12.6344 2.90796H6.61276C6.40243 2.90796 6.2319 3.07848 6.2319 3.28882C6.2319 3.49915 6.40248 3.66967 6.61281 3.66967Z" fill="#333E57"/>
<path d="M6.61281 5.16967H12.6344V2.16967H6.61281V5.16967ZM12.6344 5.16967C13.6732 5.16967 14.5153 4.32758 14.5153 3.28882H11.5153C11.5153 2.67072 12.0163 2.16967 12.6344 2.16967V5.16967ZM14.5153 3.28882C14.5153 2.25005 13.6732 1.40796 12.6344 1.40796V4.40796C12.0163 4.40796 11.5153 3.90691 11.5153 3.28882H14.5153ZM12.6344 1.40796H6.61276V4.40796H12.6344V1.40796ZM6.61276 1.40796C5.57401 1.40796 4.7319 2.25005 4.7319 3.28882H7.7319C7.7319 3.90692 7.23085 4.40796 6.61276 4.40796V1.40796ZM4.7319 3.28882C4.7319 4.32784 5.57431 5.16967 6.61281 5.16967V2.16967C7.23064 2.16967 7.7319 2.67046 7.7319 3.28882H4.7319Z" fill="black" mask="url(#path-2-inside-1_2599_334)"/>
<mask id="path-4-inside-2_2599_334" fill="white">
<path d="M6.61279 7.74365H17.9446C18.155 7.74365 18.3255 7.57313 18.3255 7.36279C18.3255 7.15246 18.155 6.98193 17.9446 6.98193H6.61279C6.40246 6.98193 6.23193 7.15246 6.23193 7.36279C6.23193 7.57313 6.40246 7.74365 6.61279 7.74365Z"/>
</mask>
<path d="M6.61279 7.74365H17.9446C18.155 7.74365 18.3255 7.57313 18.3255 7.36279C18.3255 7.15246 18.155 6.98193 17.9446 6.98193H6.61279C6.40246 6.98193 6.23193 7.15246 6.23193 7.36279C6.23193 7.57313 6.40246 7.74365 6.61279 7.74365Z" fill="#333E57"/>
<path d="M6.61279 9.24365H17.9446V6.24365H6.61279V9.24365ZM17.9446 9.24365C18.9836 9.24365 19.8255 8.40143 19.8255 7.36279H16.8255C16.8255 6.74483 17.3265 6.24365 17.9446 6.24365V9.24365ZM19.8255 7.36279C19.8255 6.32416 18.9836 5.48193 17.9446 5.48193V8.48193C17.3265 8.48193 16.8255 7.98075 16.8255 7.36279H19.8255ZM17.9446 5.48193H6.61279V8.48193H17.9446V5.48193ZM6.61279 5.48193C5.57403 5.48193 4.73193 6.32403 4.73193 7.36279H7.73193C7.73193 7.98088 7.23089 8.48193 6.61279 8.48193V5.48193ZM4.73193 7.36279C4.73193 8.40155 5.57403 9.24365 6.61279 9.24365V6.24365C7.23089 6.24365 7.73193 6.7447 7.73193 7.36279H4.73193Z" fill="black" mask="url(#path-4-inside-2_2599_334)"/>
<mask id="path-6-inside-3_2599_334" fill="white">
<path d="M6.61279 11.4668H17.9446C18.155 11.4668 18.3255 11.2963 18.3255 11.0859C18.3255 10.8756 18.155 10.7051 17.9446 10.7051H6.61279C6.40246 10.7051 6.23193 10.8756 6.23193 11.0859C6.23193 11.2963 6.40246 11.4668 6.61279 11.4668Z"/>
</mask>
<path d="M6.61279 11.4668H17.9446C18.155 11.4668 18.3255 11.2963 18.3255 11.0859C18.3255 10.8756 18.155 10.7051 17.9446 10.7051H6.61279C6.40246 10.7051 6.23193 10.8756 6.23193 11.0859C6.23193 11.2963 6.40246 11.4668 6.61279 11.4668Z" fill="#333E57"/>
<path d="M6.61279 12.9668H17.9446V9.9668H6.61279V12.9668ZM17.9446 12.9668C18.9836 12.9668 19.8255 12.1246 19.8255 11.0859H16.8255C16.8255 10.468 17.3265 9.9668 17.9446 9.9668V12.9668ZM19.8255 11.0859C19.8255 10.0473 18.9836 9.20508 17.9446 9.20508V12.2051C17.3265 12.2051 16.8255 11.7039 16.8255 11.0859H19.8255ZM17.9446 9.20508H6.61279V12.2051H17.9446V9.20508ZM6.61279 9.20508C5.57403 9.20508 4.73193 10.0472 4.73193 11.0859H7.73193C7.73193 11.704 7.23089 12.2051 6.61279 12.2051V9.20508ZM4.73193 11.0859C4.73193 12.1247 5.57403 12.9668 6.61279 12.9668V9.9668C7.23089 9.9668 7.73193 10.4678 7.73193 11.0859H4.73193Z" fill="black" mask="url(#path-6-inside-3_2599_334)"/>
<mask id="path-8-inside-4_2599_334" fill="white">
<path d="M6.61279 15.1902H17.9446C18.155 15.1902 18.3255 15.0197 18.3255 14.8093C18.3255 14.599 18.155 14.4285 17.9446 14.4285H6.61279C6.40246 14.4285 6.23193 14.599 6.23193 14.8093C6.23193 15.0197 6.40246 15.1902 6.61279 15.1902Z"/>
</mask>
<path d="M6.61279 15.1902H17.9446C18.155 15.1902 18.3255 15.0197 18.3255 14.8093C18.3255 14.599 18.155 14.4285 17.9446 14.4285H6.61279C6.40246 14.4285 6.23193 14.599 6.23193 14.8093C6.23193 15.0197 6.40246 15.1902 6.61279 15.1902Z" fill="#333E57"/>
<path d="M6.61279 16.6902H17.9446V13.6902H6.61279V16.6902ZM17.9446 16.6902C18.9836 16.6902 19.8255 15.848 19.8255 14.8093H16.8255C16.8255 14.1914 17.3265 13.6902 17.9446 13.6902V16.6902ZM19.8255 14.8093C19.8255 13.7707 18.9836 12.9285 17.9446 12.9285V15.9285C17.3265 15.9285 16.8255 15.4273 16.8255 14.8093H19.8255ZM17.9446 12.9285H6.61279V15.9285H17.9446V12.9285ZM6.61279 12.9285C5.57403 12.9285 4.73193 13.7706 4.73193 14.8093H7.73193C7.73193 15.4274 7.23089 15.9285 6.61279 15.9285V12.9285ZM4.73193 14.8093C4.73193 15.8481 5.57403 16.6902 6.61279 16.6902V13.6902C7.23089 13.6902 7.73193 14.1912 7.73193 14.8093H4.73193Z" fill="black" mask="url(#path-8-inside-4_2599_334)"/>
<mask id="path-10-inside-5_2599_334" fill="white">
<path d="M6.61279 18.9133H17.9446C18.155 18.9133 18.3255 18.7428 18.3255 18.5325C18.3255 18.3221 18.155 18.1516 17.9446 18.1516H6.61279C6.40246 18.1516 6.23193 18.3221 6.23193 18.5325C6.23193 18.7428 6.40246 18.9133 6.61279 18.9133Z"/>
</mask>
<path d="M6.61279 18.9133H17.9446C18.155 18.9133 18.3255 18.7428 18.3255 18.5325C18.3255 18.3221 18.155 18.1516 17.9446 18.1516H6.61279C6.40246 18.1516 6.23193 18.3221 6.23193 18.5325C6.23193 18.7428 6.40246 18.9133 6.61279 18.9133Z" fill="#333E57"/>
<path d="M6.61279 20.4133H17.9446V17.4133H6.61279V20.4133ZM17.9446 20.4133C18.9836 20.4133 19.8255 19.5711 19.8255 18.5325H16.8255C16.8255 17.9145 17.3265 17.4133 17.9446 17.4133V20.4133ZM19.8255 18.5325C19.8255 17.4938 18.9836 16.6516 17.9446 16.6516V19.6516C17.3265 19.6516 16.8255 19.1504 16.8255 18.5325H19.8255ZM17.9446 16.6516H6.61279V19.6516H17.9446V16.6516ZM6.61279 16.6516C5.57403 16.6516 4.73193 17.4937 4.73193 18.5325H7.73193C7.73193 19.1506 7.23089 19.6516 6.61279 19.6516V16.6516ZM4.73193 18.5325C4.73193 19.5712 5.57403 20.4133 6.61279 20.4133V17.4133C7.23089 17.4133 7.73193 17.9144 7.73193 18.5325H4.73193Z" fill="black" mask="url(#path-10-inside-5_2599_334)"/>
<mask id="path-12-inside-6_2599_334" fill="white">
<path d="M6.61279 22.6365H17.9446C18.155 22.6365 18.3255 22.466 18.3255 22.2556C18.3255 22.0453 18.155 21.8748 17.9446 21.8748H6.61279C6.40246 21.8748 6.23193 22.0453 6.23193 22.2556C6.23193 22.466 6.40246 22.6365 6.61279 22.6365Z"/>
</mask>
<path d="M6.61279 22.6365H17.9446C18.155 22.6365 18.3255 22.466 18.3255 22.2556C18.3255 22.0453 18.155 21.8748 17.9446 21.8748H6.61279C6.40246 21.8748 6.23193 22.0453 6.23193 22.2556C6.23193 22.466 6.40246 22.6365 6.61279 22.6365Z" fill="#333E57"/>
<path d="M6.61279 24.1365H17.9446V21.1365H6.61279V24.1365ZM17.9446 24.1365C18.9836 24.1365 19.8255 23.2942 19.8255 22.2556H16.8255C16.8255 21.6377 17.3265 21.1365 17.9446 21.1365V24.1365ZM19.8255 22.2556C19.8255 21.217 18.9836 20.3748 17.9446 20.3748V23.3748C17.3265 23.3748 16.8255 22.8736 16.8255 22.2556H19.8255ZM17.9446 20.3748H6.61279V23.3748H17.9446V20.3748ZM6.61279 20.3748C5.57403 20.3748 4.73193 21.2169 4.73193 22.2556H7.73193C7.73193 22.8737 7.23089 23.3748 6.61279 23.3748V20.3748ZM4.73193 22.2556C4.73193 23.2944 5.57403 24.1365 6.61279 24.1365V21.1365C7.23089 21.1365 7.73193 21.6375 7.73193 22.2556H4.73193Z" fill="black" mask="url(#path-12-inside-6_2599_334)"/>
<mask id="path-14-inside-7_2599_334" fill="white">
<path d="M4.65482 21.9003C4.65482 21.2257 4.10593 20.6768 3.4313 20.6768H3.03759V18.6738H3.4313C4.10598 18.6738 4.65482 18.1249 4.65482 17.4502C4.65482 16.7755 4.10593 16.2267 3.4313 16.2267H3.03759V14.2236H3.4313C4.10598 14.2236 4.65482 13.6747 4.65482 13.0001C4.65482 12.3254 4.10593 11.7765 3.4313 11.7765H3.03759V9.77348H3.4313C4.10598 9.77348 4.65482 9.22459 4.65482 8.54991C4.65482 7.87523 4.10593 7.32638 3.4313 7.32638H3.03759V5.32332H3.4313C4.10598 5.32332 4.65482 4.77442 4.65482 4.09979C4.65482 3.42517 4.10593 2.87622 3.43125 2.87622H1.88206C1.20738 2.87622 0.658539 3.42512 0.658539 4.09979C0.658539 4.77447 1.20743 5.32332 1.88206 5.32332H2.27577V7.32638H1.88206C1.20738 7.32638 0.658539 7.87528 0.658539 8.54991C0.658539 9.22454 1.20743 9.77348 1.88206 9.77348H2.27577V11.7765H1.88206C1.20738 11.7765 0.658539 12.3254 0.658539 13.0001C0.658539 13.6747 1.20743 14.2236 1.88206 14.2236H2.27577V16.2267H1.88206C1.20738 16.2267 0.658539 16.7756 0.658539 17.4502C0.658539 18.1249 1.20743 18.6738 1.88206 18.6738H2.27577V20.6768H1.88206C1.20738 20.6768 0.658539 21.2257 0.658539 21.9003C0.658539 22.575 1.20743 23.1239 1.88206 23.1239H3.43125C4.10593 23.1239 4.65482 22.575 4.65482 21.9003ZM1.42026 4.09979C1.42026 3.84513 1.62745 3.63794 1.88206 3.63794H3.43125C3.68591 3.63794 3.89305 3.84513 3.89305 4.09979C3.89305 4.35446 3.68586 4.5616 3.43125 4.5616H1.88206C1.62745 4.5616 1.42026 4.35446 1.42026 4.09979ZM1.42026 8.54991C1.42026 8.29524 1.62745 8.0881 1.88206 8.0881H3.43125C3.68591 8.0881 3.89305 8.29529 3.89305 8.54991C3.89305 8.80452 3.68586 9.01176 3.43125 9.01176H1.88206C1.62745 9.01176 1.42026 8.80458 1.42026 8.54991ZM1.42026 13.0001C1.42026 12.7454 1.62745 12.5383 1.88206 12.5383H3.43125C3.68591 12.5383 3.89305 12.7455 3.89305 13.0001C3.89305 13.2547 3.68586 13.4619 3.43125 13.4619H1.88206C1.62745 13.4619 1.42026 13.2547 1.42026 13.0001ZM1.42026 17.4502C1.42026 17.1955 1.62745 16.9884 1.88206 16.9884H3.43125C3.68591 16.9884 3.89305 17.1956 3.89305 17.4502C3.89305 17.7049 3.68586 17.912 3.43125 17.912H1.88206C1.62745 17.912 1.42026 17.7049 1.42026 17.4502ZM1.42026 21.9003C1.42026 21.6457 1.62745 21.4385 1.88206 21.4385H3.43125C3.68591 21.4385 3.89305 21.6457 3.89305 21.9003C3.89305 22.155 3.68586 22.3622 3.43125 22.3622H1.88206C1.62745 22.3622 1.42026 22.155 1.42026 21.9003Z"/>
</mask>
<path d="M4.65482 21.9003C4.65482 21.2257 4.10593 20.6768 3.4313 20.6768H3.03759V18.6738H3.4313C4.10598 18.6738 4.65482 18.1249 4.65482 17.4502C4.65482 16.7755 4.10593 16.2267 3.4313 16.2267H3.03759V14.2236H3.4313C4.10598 14.2236 4.65482 13.6747 4.65482 13.0001C4.65482 12.3254 4.10593 11.7765 3.4313 11.7765H3.03759V9.77348H3.4313C4.10598 9.77348 4.65482 9.22459 4.65482 8.54991C4.65482 7.87523 4.10593 7.32638 3.4313 7.32638H3.03759V5.32332H3.4313C4.10598 5.32332 4.65482 4.77442 4.65482 4.09979C4.65482 3.42517 4.10593 2.87622 3.43125 2.87622H1.88206C1.20738 2.87622 0.658539 3.42512 0.658539 4.09979C0.658539 4.77447 1.20743 5.32332 1.88206 5.32332H2.27577V7.32638H1.88206C1.20738 7.32638 0.658539 7.87528 0.658539 8.54991C0.658539 9.22454 1.20743 9.77348 1.88206 9.77348H2.27577V11.7765H1.88206C1.20738 11.7765 0.658539 12.3254 0.658539 13.0001C0.658539 13.6747 1.20743 14.2236 1.88206 14.2236H2.27577V16.2267H1.88206C1.20738 16.2267 0.658539 16.7756 0.658539 17.4502C0.658539 18.1249 1.20743 18.6738 1.88206 18.6738H2.27577V20.6768H1.88206C1.20738 20.6768 0.658539 21.2257 0.658539 21.9003C0.658539 22.575 1.20743 23.1239 1.88206 23.1239H3.43125C4.10593 23.1239 4.65482 22.575 4.65482 21.9003ZM1.42026 4.09979C1.42026 3.84513 1.62745 3.63794 1.88206 3.63794H3.43125C3.68591 3.63794 3.89305 3.84513 3.89305 4.09979C3.89305 4.35446 3.68586 4.5616 3.43125 4.5616H1.88206C1.62745 4.5616 1.42026 4.35446 1.42026 4.09979ZM1.42026 8.54991C1.42026 8.29524 1.62745 8.0881 1.88206 8.0881H3.43125C3.68591 8.0881 3.89305 8.29529 3.89305 8.54991C3.89305 8.80452 3.68586 9.01176 3.43125 9.01176H1.88206C1.62745 9.01176 1.42026 8.80458 1.42026 8.54991ZM1.42026 13.0001C1.42026 12.7454 1.62745 12.5383 1.88206 12.5383H3.43125C3.68591 12.5383 3.89305 12.7455 3.89305 13.0001C3.89305 13.2547 3.68586 13.4619 3.43125 13.4619H1.88206C1.62745 13.4619 1.42026 13.2547 1.42026 13.0001ZM1.42026 17.4502C1.42026 17.1955 1.62745 16.9884 1.88206 16.9884H3.43125C3.68591 16.9884 3.89305 17.1956 3.89305 17.4502C3.89305 17.7049 3.68586 17.912 3.43125 17.912H1.88206C1.62745 17.912 1.42026 17.7049 1.42026 17.4502ZM1.42026 21.9003C1.42026 21.6457 1.62745 21.4385 1.88206 21.4385H3.43125C3.68591 21.4385 3.89305 21.6457 3.89305 21.9003C3.89305 22.155 3.68586 22.3622 3.43125 22.3622H1.88206C1.62745 22.3622 1.42026 22.155 1.42026 21.9003Z" fill="#333E57"/>
<path d="M3.03759 20.6768H1.53759V22.1768H3.03759V20.6768ZM3.03759 18.6738V17.1738H1.53759V18.6738H3.03759ZM3.03759 16.2267H1.53759V17.7267H3.03759V16.2267ZM3.03759 14.2236V12.7236H1.53759V14.2236H3.03759ZM3.03759 11.7765H1.53759V13.2765H3.03759V11.7765ZM3.03759 9.77348V8.27348H1.53759V9.77348H3.03759ZM3.03759 7.32638H1.53759V8.82638H3.03759V7.32638ZM3.03759 5.32332V3.82332H1.53759V5.32332H3.03759ZM2.27577 5.32332H3.77577V3.82332H2.27577V5.32332ZM2.27577 7.32638V8.82638H3.77577V7.32638H2.27577ZM2.27577 9.77348H3.77577V8.27348H2.27577V9.77348ZM2.27577 11.7765V13.2765H3.77577V11.7765H2.27577ZM2.27577 14.2236H3.77577V12.7236H2.27577V14.2236ZM2.27577 16.2267V17.7267H3.77577V16.2267H2.27577ZM2.27577 18.6738H3.77577V17.1738H2.27577V18.6738ZM2.27577 20.6768V22.1768H3.77577V20.6768H2.27577ZM6.15482 21.9003C6.15482 20.3972 4.93431 19.1768 3.4313 19.1768V22.1768C3.27754 22.1768 3.15482 22.0541 3.15482 21.9003H6.15482ZM3.4313 19.1768H3.03759V22.1768H3.4313V19.1768ZM4.53759 20.6768V18.6738H1.53759V20.6768H4.53759ZM3.03759 20.1738H3.4313V17.1738H3.03759V20.1738ZM3.4313 20.1738C4.93448 20.1738 6.15482 18.9532 6.15482 17.4502H3.15482C3.15482 17.2965 3.27747 17.1738 3.4313 17.1738V20.1738ZM6.15482 17.4502C6.15482 15.947 4.93431 14.7267 3.4313 14.7267V17.7267C3.27754 17.7267 3.15482 17.604 3.15482 17.4502H6.15482ZM3.4313 14.7267H3.03759V17.7267H3.4313V14.7267ZM4.53759 16.2267V14.2236H1.53759V16.2267H4.53759ZM3.03759 15.7236H3.4313V12.7236H3.03759V15.7236ZM3.4313 15.7236C4.93444 15.7236 6.15482 14.5031 6.15482 13.0001H3.15482C3.15482 12.8463 3.27751 12.7236 3.4313 12.7236V15.7236ZM6.15482 13.0001C6.15482 11.497 4.93435 10.2765 3.4313 10.2765V13.2765C3.2775 13.2765 3.15482 13.1539 3.15482 13.0001H6.15482ZM3.4313 10.2765H3.03759V13.2765H3.4313V10.2765ZM4.53759 11.7765V9.77348H1.53759V11.7765H4.53759ZM3.03759 11.2735H3.4313V8.27348H3.03759V11.2735ZM3.4313 11.2735C4.93448 11.2735 6.15482 10.0529 6.15482 8.54991H3.15482C3.15482 8.39624 3.27747 8.27348 3.4313 8.27348V11.2735ZM6.15482 8.54991C6.15482 7.04676 4.93431 5.82638 3.4313 5.82638V8.82638C3.27754 8.82638 3.15482 8.7037 3.15482 8.54991H6.15482ZM3.4313 5.82638H3.03759V8.82638H3.4313V5.82638ZM4.53759 7.32638V5.32332H1.53759V7.32638H4.53759ZM3.03759 6.82332H3.4313V3.82332H3.03759V6.82332ZM3.4313 6.82332C4.93444 6.82332 6.15482 5.60281 6.15482 4.09979H3.15482C3.15482 3.94604 3.27751 3.82332 3.4313 3.82332V6.82332ZM6.15482 4.09979C6.15482 2.59678 4.93439 1.37622 3.43125 1.37622V4.37622C3.27746 4.37622 3.15482 4.25355 3.15482 4.09979H6.15482ZM3.43125 1.37622H1.88206V4.37622H3.43125V1.37622ZM1.88206 1.37622C0.378874 1.37622 -0.841461 2.59677 -0.841461 4.09979H2.15854C2.15854 4.25346 2.03589 4.37622 1.88206 4.37622V1.37622ZM-0.841461 4.09979C-0.841461 5.60294 0.379047 6.82332 1.88206 6.82332V3.82332C2.03582 3.82332 2.15854 3.94601 2.15854 4.09979H-0.841461ZM1.88206 6.82332H2.27577V3.82332H1.88206V6.82332ZM0.775769 5.32332V7.32638H3.77577V5.32332H0.775769ZM2.27577 5.82638H1.88206V8.82638H2.27577V5.82638ZM1.88206 5.82638C0.378915 5.82638 -0.841461 7.04689 -0.841461 8.54991H2.15854C2.15854 8.70367 2.03585 8.82638 1.88206 8.82638V5.82638ZM-0.841461 8.54991C-0.841461 10.0529 0.378925 11.2735 1.88206 11.2735V8.27348C2.03594 8.27348 2.15854 8.39619 2.15854 8.54991H-0.841461ZM1.88206 11.2735H2.27577V8.27348H1.88206V11.2735ZM0.775769 9.77348V11.7765H3.77577V9.77348H0.775769ZM2.27577 10.2765H1.88206V13.2765H2.27577V10.2765ZM1.88206 10.2765C0.378915 10.2765 -0.841461 11.4971 -0.841461 13.0001H2.15854C2.15854 13.1538 2.03585 13.2765 1.88206 13.2765V10.2765ZM-0.841461 13.0001C-0.841461 14.5031 0.379007 15.7236 1.88206 15.7236V12.7236C2.03586 12.7236 2.15854 12.8463 2.15854 13.0001H-0.841461ZM1.88206 15.7236H2.27577V12.7236H1.88206V15.7236ZM0.775769 14.2236V16.2267H3.77577V14.2236H0.775769ZM2.27577 14.7267H1.88206V17.7267H2.27577V14.7267ZM1.88206 14.7267C0.378874 14.7267 -0.841461 15.9472 -0.841461 17.4502H2.15854C2.15854 17.6039 2.03589 17.7267 1.88206 17.7267V14.7267ZM-0.841461 17.4502C-0.841461 18.9534 0.379047 20.1738 1.88206 20.1738V17.1738C2.03582 17.1738 2.15854 17.2964 2.15854 17.4502H-0.841461ZM1.88206 20.1738H2.27577V17.1738H1.88206V20.1738ZM0.775769 18.6738V20.6768H3.77577V18.6738H0.775769ZM2.27577 19.1768H1.88206V22.1768H2.27577V19.1768ZM1.88206 19.1768C0.378915 19.1768 -0.841461 20.3973 -0.841461 21.9003H2.15854C2.15854 22.0541 2.03585 22.1768 1.88206 22.1768V19.1768ZM-0.841461 21.9003C-0.841461 23.4034 0.379007 24.6239 1.88206 24.6239V21.6239C2.03586 21.6239 2.15854 21.7465 2.15854 21.9003H-0.841461ZM1.88206 24.6239H3.43125V21.6239H1.88206V24.6239ZM3.43125 24.6239C4.93427 24.6239 6.15482 23.4035 6.15482 21.9003H3.15482C3.15482 21.7465 3.27758 21.6239 3.43125 21.6239V24.6239ZM2.92026 4.09979C2.92026 4.67345 2.45598 5.13794 1.88206 5.13794V2.13794C0.79891 2.13794 -0.0797424 3.01681 -0.0797424 4.09979H2.92026ZM1.88206 5.13794H3.43125V2.13794H1.88206V5.13794ZM3.43125 5.13794C2.85727 5.13794 2.39305 4.67334 2.39305 4.09979H5.39305C5.39305 3.01691 4.51456 2.13794 3.43125 2.13794V5.13794ZM2.39305 4.09979C2.39305 3.52593 2.85754 3.0616 3.43125 3.0616V6.0616C4.51418 6.0616 5.39305 5.183 5.39305 4.09979H2.39305ZM3.43125 3.0616H1.88206V6.0616H3.43125V3.0616ZM1.88206 3.0616C2.45577 3.0616 2.92026 3.52593 2.92026 4.09979H-0.0797424C-0.0797424 5.183 0.799125 6.0616 1.88206 6.0616V3.0616ZM2.92026 8.54991C2.92026 9.12378 2.45576 9.5881 1.88206 9.5881V6.5881C0.799127 6.5881 -0.0797424 7.4667 -0.0797424 8.54991H2.92026ZM1.88206 9.5881H3.43125V6.5881H1.88206V9.5881ZM3.43125 9.5881C2.85738 9.5881 2.39305 9.12361 2.39305 8.54991H5.39305C5.39305 7.46697 4.51445 6.5881 3.43125 6.5881V9.5881ZM2.39305 8.54991C2.39305 7.97631 2.85722 7.51176 3.43125 7.51176V10.5118C4.5145 10.5118 5.39305 9.63274 5.39305 8.54991H2.39305ZM3.43125 7.51176H1.88206V10.5118H3.43125V7.51176ZM1.88206 7.51176C2.45598 7.51176 2.92026 7.97626 2.92026 8.54991H-0.0797424C-0.0797424 9.63289 0.79891 10.5118 1.88206 10.5118V7.51176ZM2.92026 13.0001C2.92026 13.5739 2.45576 14.0383 1.88206 14.0383V11.0383C0.799127 11.0383 -0.0797424 11.9169 -0.0797424 13.0001H2.92026ZM1.88206 14.0383H3.43125V11.0383H1.88206V14.0383ZM3.43125 14.0383C2.85738 14.0383 2.39305 13.5738 2.39305 13.0001H5.39305C5.39305 11.9171 4.51445 11.0383 3.43125 11.0383V14.0383ZM2.39305 13.0001C2.39305 12.4263 2.85744 11.9619 3.43125 11.9619V14.9619C4.51429 14.9619 5.39305 14.0831 5.39305 13.0001H2.39305ZM3.43125 11.9619H1.88206V14.9619H3.43125V11.9619ZM1.88206 11.9619C2.45576 11.9619 2.92026 12.4262 2.92026 13.0001H-0.0797424C-0.0797424 14.0833 0.799127 14.9619 1.88206 14.9619V11.9619ZM2.92026 17.4502C2.92026 18.0241 2.45576 18.4884 1.88206 18.4884V15.4884C0.799127 15.4884 -0.0797424 16.367 -0.0797424 17.4502H2.92026ZM1.88206 18.4884H3.43125V15.4884H1.88206V18.4884ZM3.43125 18.4884C2.85727 18.4884 2.39305 18.0238 2.39305 17.4502H5.39305C5.39305 16.3674 4.51456 15.4884 3.43125 15.4884V18.4884ZM2.39305 17.4502C2.39305 16.8764 2.85754 16.412 3.43125 16.412V19.412C4.51418 19.412 5.39305 18.5334 5.39305 17.4502H2.39305ZM3.43125 16.412H1.88206V19.412H3.43125V16.412ZM1.88206 16.412C2.45598 16.412 2.92026 16.8765 2.92026 17.4502H-0.0797424C-0.0797424 18.5332 0.79891 19.412 1.88206 19.412V16.412ZM2.92026 21.9003C2.92026 22.4742 2.45576 22.9385 1.88206 22.9385V19.9385C0.799127 19.9385 -0.0797424 20.8171 -0.0797424 21.9003H2.92026ZM1.88206 22.9385H3.43125V19.9385H1.88206V22.9385ZM3.43125 22.9385C2.85738 22.9385 2.39305 22.4741 2.39305 21.9003H5.39305C5.39305 20.8174 4.51445 19.9385 3.43125 19.9385V22.9385ZM2.39305 21.9003C2.39305 21.3265 2.85744 20.8622 3.43125 20.8622V23.8622C4.51429 23.8622 5.39305 22.9834 5.39305 21.9003H2.39305ZM3.43125 20.8622H1.88206V23.8622H3.43125V20.8622ZM1.88206 20.8622C2.45576 20.8622 2.92026 21.3265 2.92026 21.9003H-0.0797424C-0.0797424 22.9836 0.799127 23.8622 1.88206 23.8622V20.8622Z" fill="black" mask="url(#path-14-inside-7_2599_334)"/>
<path d="M3.02888 1.5162L2.94065 1.5087L3.02888 1.5162ZM2.81815 1.49833L2.81815 1.49834L2.81815 1.49833Z" fill="#333E57" stroke="black" stroke-width="1.5"/>
</svg>
