<svg width="167" height="180" viewBox="0 0 167 180" fill="none" xmlns="http://www.w3.org/2000/svg">
<path d="M106.321 80.439C90.8354 80.439 75.6854 80.439 60.1694 80.439C60.1694 81.729 60.1694 82.893 60.1694 84.057C60.1694 114.249 60.1814 144.447 60.1274 174.639C60.1214 176.319 61.1174 179.049 58.1654 179.103C55.0454 179.157 55.9274 176.355 55.9154 174.537C55.8554 162.351 55.8854 150.165 55.8854 137.745C39.4754 137.745 23.2574 137.745 6.6554 137.745C6.6554 138.903 6.6554 139.971 6.6554 141.033C6.6554 152.331 6.65541 163.629 6.64941 174.927C6.64941 175.827 6.8234 176.829 6.4814 177.591C6.1814 178.269 5.23341 179.145 4.65741 179.091C3.88941 179.013 2.8874 178.257 2.5634 177.531C2.1854 176.691 2.40741 175.569 2.40741 174.573C2.40141 121.983 2.4074 69.393 2.4014 16.803C2.4014 15.297 2.8814 13.611 0.679403 12.957C0.271403 12.837 -0.154598 11.463 0.0554021 10.911C0.319402 10.233 1.1834 9.48303 1.8974 9.35103C3.2474 9.10503 4.6694 9.27903 6.5294 9.27903C6.5294 7.20303 6.5174 5.34303 6.5354 3.48303C6.5474 1.98903 6.3614 0.0390326 8.4854 0.189033C9.5354 0.261033 10.4894 1.69503 11.4914 2.51103C11.3354 2.76303 11.1794 3.02103 11.0234 3.27303C14.4854 3.27303 17.9474 3.27303 20.7734 3.27303C22.0994 1.97703 23.0114 0.363029 24.0554 0.279029C24.9794 0.201029 26.0414 1.82703 26.6534 3.30303C30.0254 3.30303 33.3974 3.30303 36.0854 3.30303C37.5134 1.97703 38.4794 0.381028 39.6194 0.255028C40.4654 0.159028 41.5274 1.95903 42.9374 3.34503C45.1694 3.34503 48.1514 3.34503 51.3494 3.34503C51.5354 2.75103 51.5474 1.93503 51.9614 1.53303C52.6034 0.909031 53.5874 0.111032 54.2894 0.231032C54.9914 0.345032 55.9694 1.44303 56.0534 2.19303C56.2934 4.35903 56.1374 6.57303 56.1374 9.26103C57.7214 9.26103 59.1074 9.07503 60.4094 9.32703C61.2374 9.48903 62.3774 10.185 62.5634 10.869C62.7494 11.541 61.9454 12.507 61.5134 13.317C61.1114 14.073 60.2354 14.793 60.2354 15.531C60.1694 35.229 60.1934 54.921 60.2114 74.619C60.2114 74.901 60.3374 75.189 60.4574 75.681C62.3834 75.681 64.3274 75.681 66.6854 75.681C66.6854 72.171 66.7094 68.613 66.6494 65.055C66.6434 64.689 66.2114 64.107 65.8694 64.005C63.0374 63.177 63.5654 61.503 64.6694 59.631C66.1394 57.147 67.2014 54.285 69.1394 52.251C74.7134 46.401 91.0334 46.359 96.6974 52.161C99.1094 54.633 100.927 57.711 102.835 60.633C103.765 62.055 103.219 63.225 101.545 63.927C100.879 64.203 99.9674 64.953 99.9434 65.523C99.7934 68.889 99.8714 72.273 99.8714 75.771C102.097 75.771 103.975 75.771 106.327 75.771C106.327 74.703 106.327 73.653 106.327 72.603C106.327 54.009 106.327 35.409 106.321 16.815C106.321 15.285 106.723 13.629 104.617 12.879C104.191 12.729 103.789 11.349 104.023 10.821C104.323 10.155 105.223 9.47103 105.961 9.33903C107.299 9.10503 108.703 9.27303 110.449 9.27303C110.449 7.22703 110.221 5.42103 110.527 3.71103C110.749 2.44503 111.673 1.30503 112.279 0.105028C113.353 0.831028 114.421 1.55103 115.495 2.27703C115.387 2.49903 115.273 2.71503 115.165 2.93703C118.639 2.93703 122.119 2.93703 124.735 2.93703C126.199 1.66503 127.141 0.213032 128.083 0.207032C129.037 0.207032 129.997 1.63503 130.615 3.05703C133.609 3.05703 136.603 3.13503 139.591 2.99703C140.245 2.96703 141.079 2.29503 141.451 1.68903C142.705 -0.356967 144.649 -0.656971 145.417 1.41303C146.065 3.15903 147.097 3.06303 148.381 3.06303C150.181 3.06303 151.993 3.19503 153.775 2.99703C154.537 2.91303 155.215 2.11503 155.941 1.65903C156.763 1.14303 157.771 0.0930289 158.389 0.279029C159.139 0.507029 159.955 1.74903 160.063 2.63103C160.309 4.68303 160.141 6.77703 160.141 9.26103C161.779 9.26103 163.183 9.06903 164.491 9.33303C165.313 9.50103 166.327 10.215 166.633 10.941C166.855 11.475 166.075 12.435 165.715 13.197C165.265 14.145 164.395 15.081 164.383 16.029C164.275 24.429 164.323 32.823 164.323 41.223C164.323 86.031 164.323 130.839 164.329 175.647C164.329 177.315 164.341 179.133 162.109 179.163C159.817 179.193 159.871 177.309 159.871 175.683C159.859 164.283 159.865 152.889 159.865 141.489C159.865 140.307 159.865 139.119 159.865 137.727C143.467 137.727 127.321 137.727 110.821 137.727C110.767 138.867 110.665 140.019 110.665 141.177C110.653 152.277 110.659 163.371 110.659 174.471C110.659 175.371 110.893 176.397 110.539 177.135C110.143 177.963 109.165 179.109 108.511 179.067C107.755 179.019 106.837 177.933 106.435 177.087C106.081 176.349 106.339 175.323 106.339 174.423C106.339 144.429 106.339 114.435 106.339 84.441C106.321 83.163 106.321 81.891 106.321 80.439ZM6.90741 89.661C6.90741 104.265 6.90741 118.581 6.90741 132.933C23.3054 132.933 39.4514 132.933 55.6574 132.933C55.6574 118.395 55.6574 104.073 55.6574 89.661C39.3434 89.661 23.2634 89.661 6.90741 89.661ZM159.565 133.029C159.565 118.575 159.565 104.193 159.565 89.757C143.245 89.757 127.111 89.757 110.851 89.757C110.851 104.265 110.851 118.587 110.851 133.029C127.141 133.029 143.215 133.029 159.565 133.029ZM55.7594 13.737C39.2054 13.737 22.9994 13.737 6.84141 13.737C6.84141 23.535 6.84141 33.081 6.84141 42.753C23.2334 42.753 39.4334 42.753 55.7594 42.753C55.7594 33.003 55.7594 23.457 55.7594 13.737ZM159.679 13.719C143.311 13.719 127.111 13.719 110.809 13.719C110.809 23.505 110.809 33.057 110.809 42.729C127.195 42.729 143.407 42.729 159.679 42.729C159.679 32.955 159.679 23.403 159.679 13.719ZM6.9014 47.451C6.9014 57.087 6.9014 66.411 6.9014 75.735C23.2934 75.735 39.4334 75.735 55.6994 75.735C55.6994 66.255 55.6994 56.931 55.6994 47.451C39.3794 47.451 23.2394 47.451 6.9014 47.451ZM110.827 75.651C127.237 75.651 143.455 75.651 159.661 75.651C159.661 66.141 159.661 56.883 159.661 47.553C143.257 47.553 127.039 47.553 110.827 47.553C110.827 57.087 110.827 66.351 110.827 75.651ZM55.7654 80.529C39.2474 80.529 23.0354 80.529 6.8054 80.529C6.8054 82.167 6.8054 83.535 6.8054 85.077C23.1854 85.077 39.4214 85.077 55.7654 85.077C55.7654 83.493 55.7654 82.113 55.7654 80.529ZM110.773 85.101C127.255 85.101 143.383 85.101 159.667 85.101C159.667 83.475 159.667 82.029 159.667 80.493C143.281 80.493 127.069 80.493 110.773 80.493C110.773 82.095 110.773 83.469 110.773 85.101ZM69.8774 59.445C78.8654 59.445 87.6314 59.445 96.5414 59.445C94.3574 54.603 90.8594 52.395 85.7894 52.653C83.7014 52.761 81.6014 52.695 79.5134 52.671C74.8154 52.617 71.4494 54.477 69.8774 59.445ZM71.1974 75.645C79.3934 75.645 87.3974 75.645 95.2994 75.645C95.2994 73.737 95.2994 72.087 95.2994 70.437C87.1514 70.437 79.2314 70.437 71.1974 70.437C71.1974 72.309 71.1974 73.959 71.1974 75.645ZM95.0774 65.613C95.2514 65.385 95.4254 65.157 95.5934 64.929C94.9874 64.599 94.3814 63.993 93.7694 63.987C86.7794 63.921 79.7954 63.921 72.8054 63.987C72.1994 63.993 71.5994 64.599 70.9994 64.929C71.0894 65.157 71.1794 65.391 71.2694 65.619C79.2074 65.613 87.1454 65.613 95.0774 65.613ZM129.967 7.62303C131.839 9.95103 140.269 9.77103 141.325 7.62303C137.611 7.62303 133.999 7.62303 129.967 7.62303ZM114.643 8.88903C118.639 8.88903 122.269 8.88903 126.205 8.88903C124.363 6.86703 116.335 6.89103 114.643 8.88903ZM156.271 7.64703C152.395 7.64703 149.137 7.64703 145.777 7.64703C146.839 9.69903 153.877 9.93903 156.271 7.64703ZM26.5394 8.15703C26.5514 8.36703 26.5634 8.57703 26.5694 8.79303C30.0854 8.79303 33.6014 8.79303 37.1174 8.79303C37.1054 8.58303 37.0934 8.37303 37.0814 8.15703C33.5714 8.15703 30.0554 8.15703 26.5394 8.15703ZM10.9874 8.14503C10.9934 8.37903 10.9994 8.61303 10.9994 8.84703C14.5274 8.84703 18.0494 8.84703 21.5774 8.84703C21.5714 8.61303 21.5714 8.37903 21.5654 8.14503C18.0434 8.14503 14.5154 8.14503 10.9874 8.14503ZM51.4874 8.99103C51.4934 8.75703 51.4934 8.52303 51.4994 8.28903C48.3194 8.28903 45.1394 8.28903 41.9594 8.28903C41.9594 8.52303 41.9594 8.75703 41.9594 8.99103C45.1334 8.99103 48.3134 8.99103 51.4874 8.99103Z" fill="#3F3D56"/>
<path d="M78.1154 94.6649C76.6274 90.1949 77.0534 87.621 79.5794 85.725C81.9074 83.973 84.3673 83.853 86.8333 85.443C89.6053 87.231 90.1213 89.709 88.7533 94.731C93.1753 96.405 97.4833 98.619 99.6433 102.999C101.311 106.395 102.919 110.265 102.979 113.943C103.297 134.229 103.135 154.521 103.129 174.807C103.129 178.329 102.607 178.869 99.1993 178.875C88.6033 178.893 78.0073 178.839 67.4174 178.911C64.7714 178.929 63.6374 177.981 63.6494 175.227C63.7154 154.635 63.5594 134.049 63.7514 113.457C63.8234 105.501 67.8794 99.6689 75.0014 96.0509C75.9553 95.5649 76.9754 95.1689 78.1154 94.6649ZM90.5473 112.995C90.5473 109.683 90.5533 106.515 90.5473 103.353C90.5413 99.633 90.1453 99.249 86.2573 99.207C86.2573 103.767 86.2573 108.321 86.2573 112.995C87.6793 112.995 88.9333 112.995 90.5473 112.995ZM81.5713 99.093C81.3793 98.799 81.1813 98.511 80.9893 98.217C79.7833 99.087 77.6293 99.861 77.5333 100.845C77.1374 104.847 77.3654 108.909 77.3654 112.941C78.9914 112.941 80.2273 112.941 81.5713 112.941C81.5713 108.189 81.5713 103.641 81.5713 99.093ZM72.8954 154.761C71.2994 154.761 69.8594 154.761 68.2454 154.761C68.2454 157.377 68.2454 159.903 68.2454 162.465C69.8954 162.465 71.3354 162.465 72.8954 162.465C72.8954 159.825 72.8954 157.383 72.8954 154.761ZM72.7873 125.481C72.7873 122.841 72.7873 120.333 72.7873 117.753C71.1554 117.753 69.7874 117.753 68.2994 117.753C68.2994 120.411 68.2994 122.925 68.2994 125.481C69.9314 125.481 71.2994 125.481 72.7873 125.481ZM72.8773 137.775C72.8773 135.027 72.8773 132.603 72.8773 130.023C71.2633 130.023 69.8294 130.023 68.2694 130.023C68.2694 132.633 68.2694 135.135 68.2694 137.775C69.8474 137.775 71.1973 137.775 72.8773 137.775ZM72.8174 150.165C72.8174 147.387 72.8174 144.963 72.8174 142.545C71.1434 142.545 69.7154 142.545 68.2694 142.545C68.2694 145.221 68.2694 147.651 68.2694 150.165C69.8714 150.165 71.2454 150.165 72.8174 150.165ZM90.3373 162.501C90.3373 159.717 90.3373 157.269 90.3373 154.779C88.8793 154.779 87.6313 154.779 86.2453 154.779C86.2453 157.431 86.2453 159.879 86.2453 162.501C87.6493 162.501 88.8973 162.501 90.3373 162.501ZM68.2154 174.255C69.8174 174.255 71.2573 174.255 72.8233 174.255C72.8233 171.807 72.8233 169.503 72.8233 167.199C71.1613 167.199 69.7334 167.199 68.2154 167.199C68.2154 169.635 68.2154 171.867 68.2154 174.255ZM86.2513 117.789C86.2513 120.411 86.2513 122.853 86.2513 125.391C87.7213 125.391 89.0293 125.391 90.3373 125.391C90.3373 122.727 90.3373 120.303 90.3373 117.789C88.8733 117.789 87.6313 117.789 86.2513 117.789ZM86.2573 137.625C87.7333 137.625 89.0353 137.625 90.3253 137.625C90.3253 134.895 90.3253 132.459 90.3253 130.053C88.8493 130.053 87.6073 130.053 86.2573 130.053C86.2573 132.693 86.2573 135.135 86.2573 137.625ZM90.3553 150.177C90.3553 147.447 90.3553 145.023 90.3553 142.449C88.9213 142.449 87.6733 142.449 86.3293 142.449C86.3293 145.095 86.3293 147.591 86.3293 150.177C87.7393 150.177 88.9093 150.177 90.3553 150.177ZM72.9134 102.681C69.7694 105.933 68.2273 109.029 68.2573 112.947C69.8953 112.947 71.3354 112.947 72.9134 112.947C72.9134 109.683 72.9134 106.617 72.9134 102.681ZM81.4993 162.525C81.4993 159.753 81.4993 157.323 81.4993 154.779C80.0893 154.779 78.8653 154.779 77.5993 154.779C77.5993 157.473 77.5993 159.957 77.5993 162.525C78.9973 162.525 80.1493 162.525 81.4993 162.525ZM90.3733 167.205C88.8253 167.205 87.5833 167.205 86.2753 167.205C86.2753 169.647 86.2753 171.891 86.2753 174.261C87.7033 174.261 88.9513 174.261 90.3733 174.261C90.3733 171.861 90.3733 169.623 90.3733 167.205ZM81.4393 125.463C81.4393 122.793 81.4393 120.279 81.4393 117.759C80.0233 117.759 78.8594 117.759 77.5993 117.759C77.5993 120.435 77.5993 122.949 77.5993 125.463C79.0213 125.463 80.1853 125.463 81.4393 125.463ZM77.5573 130.023C77.5573 132.687 77.5573 135.195 77.5573 137.691C78.9913 137.691 80.2153 137.691 81.4213 137.691C81.4213 134.967 81.4213 132.471 81.4213 130.023C79.9873 130.023 78.8353 130.023 77.5573 130.023ZM81.4393 150.141C81.4393 147.591 81.4393 145.023 81.4393 142.533C79.9873 142.533 78.7633 142.533 77.5333 142.533C77.5333 145.185 77.5333 147.603 77.5333 150.141C78.8713 150.141 80.0353 150.141 81.4393 150.141ZM98.4373 162.495C98.4373 159.825 98.4373 157.323 98.4373 154.803C97.1353 154.803 96.0913 154.803 94.9873 154.803C94.9873 157.467 94.9873 159.915 94.9873 162.495C96.2053 162.495 97.2553 162.495 98.4373 162.495ZM81.4753 174.255C81.4753 171.783 81.4753 169.479 81.4753 167.211C80.0233 167.211 78.7933 167.211 77.5213 167.211C77.5213 169.647 77.5213 171.885 77.5213 174.255C78.9193 174.255 80.1493 174.255 81.4753 174.255ZM94.9813 125.367C96.2773 125.367 97.3873 125.367 98.4673 125.367C98.4673 122.673 98.4673 120.225 98.4673 117.783C97.1773 117.783 96.1213 117.783 94.9813 117.783C94.9813 120.411 94.9813 122.865 94.9813 125.367ZM94.9633 137.427C95.1853 137.745 95.4073 138.057 95.6293 138.375C96.6433 137.733 98.3653 137.235 98.5333 136.413C98.9533 134.367 98.6713 132.177 98.6713 130.005C97.2073 130.005 96.1633 130.005 94.9633 130.005C94.9633 132.561 94.9633 134.991 94.9633 137.427ZM94.9753 142.473C94.9753 145.089 94.9753 147.537 94.9753 150.075C96.2233 150.075 97.3513 150.075 98.4793 150.075C98.4793 147.447 98.4793 145.005 98.4793 142.473C97.2193 142.473 96.1753 142.473 94.9753 142.473ZM94.9573 174.261C96.2833 174.261 97.3393 174.261 98.4793 174.261C98.4793 171.789 98.4793 169.479 98.4793 167.145C97.2073 167.145 96.1513 167.145 94.9573 167.145C94.9573 169.527 94.9573 171.777 94.9573 174.261ZM95.8453 104.265C95.5573 104.379 95.2693 104.493 94.9753 104.607C94.9753 107.355 94.9753 110.103 94.9753 112.923C96.2593 112.923 97.3693 112.923 99.2173 112.923C97.9753 109.737 96.9133 107.001 95.8453 104.265ZM83.4433 87.993C82.5493 89.259 81.6013 90.009 81.6733 90.645C81.7513 91.341 82.7713 91.9289 83.3833 92.5589C84.0073 91.9409 85.0333 91.3769 85.1293 90.6869C85.2193 90.0509 84.3013 89.277 83.4433 87.993Z" fill="#3F3D56"/>
<path d="M127.921 164.223C127.921 160.833 127.867 157.443 127.933 154.053C128.023 149.529 131.149 146.385 135.403 146.427C139.639 146.469 142.711 149.655 142.747 154.197C142.795 160.881 142.705 167.559 142.789 174.243C142.825 176.757 141.925 177.951 139.303 177.843C136.615 177.729 133.915 177.735 131.227 177.843C128.725 177.939 127.843 176.757 127.897 174.405C127.975 171.009 127.921 167.619 127.921 164.223ZM138.361 173.337C138.361 166.629 138.499 160.173 138.223 153.735C138.181 152.703 136.381 151.131 135.229 150.969C134.395 150.849 132.469 152.607 132.427 153.585C132.175 160.113 132.295 166.653 132.295 173.337C134.389 173.337 136.153 173.337 138.361 173.337Z" fill="#3F3D56"/>
<path d="M24.0014 163.797C24.0014 160.401 23.9474 156.999 24.0194 153.603C24.1034 149.583 27.0674 146.601 30.9974 146.451C35.0114 146.301 38.4374 148.941 38.5694 152.943C38.8154 160.329 38.6774 167.733 38.6714 175.125C38.6714 176.949 37.7174 177.843 35.8514 177.825C32.8514 177.789 29.8574 177.789 26.8574 177.825C24.8354 177.849 23.9714 176.895 23.9954 174.897C24.0374 171.189 24.0014 167.493 24.0014 163.797ZM34.3274 173.325C34.3274 166.557 34.4534 160.167 34.2014 153.783C34.1594 152.745 32.5394 151.041 31.5494 150.963C30.5354 150.885 28.4954 152.403 28.4594 153.279C28.1954 159.921 28.3154 166.575 28.3154 173.319C30.4394 173.325 32.1974 173.325 34.3274 173.325Z" fill="#3F3D56"/>
<path d="M24.0014 112.323C24.0014 108.927 23.9474 105.525 24.0134 102.129C24.0974 98.0971 27.0614 95.1031 30.9674 94.9711C35.1614 94.8331 38.4794 97.5151 38.5994 101.709C38.8094 108.999 38.6773 116.295 38.6773 123.591C38.6773 125.427 37.7834 126.309 35.8874 126.273C32.8934 126.213 29.8934 126.213 26.8934 126.273C24.8774 126.315 23.9654 125.451 23.9894 123.417C24.0374 119.715 24.0014 116.019 24.0014 112.323ZM34.3454 121.923C34.3454 115.395 34.3334 109.149 34.3514 102.897C34.3574 100.803 33.5354 99.2792 31.3154 99.2852C29.1014 99.2912 28.2554 100.851 28.2434 102.909C28.2254 107.589 28.2374 112.269 28.2314 116.949C28.2314 118.593 28.2314 120.231 28.2314 121.923C30.4334 121.923 32.1134 121.923 34.3454 121.923Z" fill="#3F3D56"/>
<path d="M127.921 112.695C127.921 109.407 127.885 106.113 127.927 102.825C127.993 98.0671 131.017 94.923 135.427 94.959C139.687 94.995 142.717 98.1391 142.747 102.711C142.795 109.389 142.699 116.073 142.789 122.751C142.825 125.295 141.889 126.417 139.279 126.285C136.591 126.153 133.891 126.159 131.203 126.285C128.683 126.399 127.837 125.217 127.891 122.865C127.981 119.481 127.921 116.085 127.921 112.695ZM138.331 121.851C138.331 115.143 138.451 108.591 138.199 102.057C138.163 101.079 136.447 99.5431 135.343 99.3751C133.405 99.0811 132.307 100.617 132.277 102.585C132.217 106.371 132.247 110.157 132.241 113.943C132.235 116.577 132.241 119.217 132.241 121.857C134.539 121.851 136.297 121.851 138.331 121.851Z" fill="#3F3D56"/>
<path d="M24.0014 30.0272C24.0014 27.9332 23.9474 25.8452 24.0134 23.7572C24.1394 19.8272 27.1694 16.7792 31.0334 16.6052C34.8254 16.4372 38.3534 19.2872 38.5694 23.1872C38.8274 27.8552 38.6834 32.5412 38.6594 37.2212C38.6534 39.0572 37.6334 39.8672 35.7914 39.8372C32.8034 39.7832 29.8154 39.8012 26.8274 39.8312C24.8114 39.8552 23.9414 38.8892 23.9894 36.9032C24.0434 34.6112 24.0014 32.3192 24.0014 30.0272ZM28.2674 35.3372C30.5174 35.3372 32.2634 35.3372 34.3214 35.3372C34.3214 31.4072 34.5254 27.6392 34.1894 23.9252C34.0934 22.8872 32.2934 21.1232 31.4894 21.2312C30.3134 21.3992 28.5194 22.8692 28.4114 23.9252C28.0394 27.6392 28.2674 31.4072 28.2674 35.3372Z" fill="#3F3D56"/>
<path d="M142.759 30.4173C142.759 32.5113 142.723 34.6053 142.771 36.6993C142.813 38.7873 141.955 39.8673 139.765 39.8313C136.777 39.7833 133.783 39.7893 130.789 39.8253C128.743 39.8493 127.909 38.8113 127.915 36.8733C127.927 32.4873 127.795 28.0953 127.963 23.7153C128.113 19.6593 131.503 16.5693 135.397 16.6053C139.285 16.6413 142.561 19.8153 142.735 23.8353C142.837 26.0313 142.759 28.2273 142.759 30.4173ZM138.361 35.3973C138.361 31.3833 138.421 27.7173 138.337 24.0513C138.295 22.2153 137.155 20.7813 135.349 21.1473C134.203 21.3813 132.529 22.7853 132.439 23.7873C132.097 27.5973 132.301 31.4613 132.301 35.3973C134.449 35.3973 136.213 35.3973 138.361 35.3973Z" fill="#3F3D56"/>
<path d="M24.0015 63.2429C24.0015 61.1489 23.9655 59.0609 24.0075 56.9669C24.0975 52.8629 27.1335 49.6889 31.0575 49.5329C34.9515 49.3769 38.4255 52.3829 38.6115 56.4389C38.8155 60.9089 38.6895 65.4029 38.6955 69.8789C38.7015 71.8289 37.7775 72.8069 35.7615 72.7769C32.7735 72.7289 29.7855 72.7529 26.7975 72.7649C24.7935 72.7709 23.9175 71.8049 23.9775 69.8069C24.0495 67.6289 24.0015 65.4329 24.0015 63.2429ZM34.3335 68.3369C34.3335 64.3769 34.3635 60.7169 34.3215 57.0509C34.2975 55.1669 33.1815 53.7929 31.3875 54.1289C30.2355 54.3449 28.5195 55.7189 28.4355 56.6969C28.0935 60.5009 28.2975 64.3529 28.2975 68.3369C30.3855 68.3369 32.1315 68.3369 34.3335 68.3369Z" fill="#3F3D56"/>
<path d="M142.759 63.3992C142.759 65.5952 142.753 67.7852 142.765 69.9812C142.771 71.8232 141.865 72.7592 140.029 72.7652C136.939 72.7772 133.849 72.7652 130.753 72.7772C128.929 72.7832 127.939 71.9192 127.933 70.0712C127.921 65.5832 127.807 61.0892 127.975 56.6072C128.125 52.5752 131.581 49.4672 135.451 49.5272C139.333 49.5932 142.579 52.7852 142.741 56.8172C142.831 59.0132 142.759 61.2092 142.759 63.3992ZM138.331 68.3552C138.331 64.2932 138.535 60.5132 138.193 56.7812C138.103 55.7792 136.363 54.2132 135.367 54.2072C134.353 54.2012 132.535 55.7192 132.445 56.6912C132.103 60.5072 132.307 64.3772 132.307 68.3552C134.419 68.3552 136.177 68.3552 138.331 68.3552Z" fill="#3F3D56"/>
</svg>
