<svg width="20" height="18" viewBox="0 0 20 18" fill="none" xmlns="http://www.w3.org/2000/svg">
<path d="M7.73312 12.6163V14.5338C7.73312 15.0424 7.93515 15.5301 8.29475 15.8897C8.65436 16.2493 9.14209 16.4513 9.65065 16.4513H16.362C16.8705 16.4513 17.3583 16.2493 17.7179 15.8897C18.0775 15.5301 18.2795 15.0424 18.2795 14.5338V3.02865C18.2795 2.52009 18.0775 2.03236 17.7179 1.67275C17.3583 1.31315 16.8705 1.11112 16.362 1.11112H9.65065C9.14209 1.11112 8.65436 1.31315 8.29475 1.67275C7.93515 2.03236 7.73312 2.52009 7.73312 3.02865V4.94617" stroke="#475168" stroke-width="1.5" stroke-linecap="round" stroke-linejoin="round"/>
<path d="M14.4443 8.72453L1.02212 8.83785L6.86164 8.78855L14.4443 8.72453ZM14.4443 8.72453L11.5438 5.87263M14.4443 8.72453L11.5924 11.625" stroke="#475168" stroke-width="1.5" stroke-linecap="round" stroke-linejoin="round"/>
</svg>
