<svg width="52" height="55" viewBox="0 0 52 55" fill="none" xmlns="http://www.w3.org/2000/svg">
<path d="M50.3473 1.69055C50.3448 1.68807 50.3422 1.68589 50.3398 1.68341C49.9263 1.24896 49.3564 1 48.7746 1H48.7717C48.2689 1 47.7767 1.18322 47.386 1.5154C42.0688 6.0173 36.7318 10.6641 31.5229 15.3265C30.2563 16.4601 28.9887 17.6026 27.7222 18.7514L13.2614 3.4232C11.8335 1.9098 9.51023 1.91001 8.0824 3.4232L1.21453 10.7032C0.928491 11.0065 0.928491 11.498 1.21453 11.8012C1.50056 12.1043 1.96433 12.1043 2.25027 11.8012L7.04666 6.71717L8.0948 7.8282L3.29851 12.9123C3.01248 13.2156 3.01248 13.7071 3.29851 14.0103C3.44148 14.1618 3.62898 14.2376 3.81638 14.2376C4.00379 14.2376 4.19129 14.1618 4.33425 14.0103L9.13064 8.92619L10.1788 10.0372L5.3824 15.1213C5.09636 15.4246 5.09636 15.9161 5.3824 16.2193C5.52537 16.3708 5.71287 16.4466 5.90027 16.4466C6.08767 16.4466 6.27517 16.3708 6.41814 16.2193L11.2145 11.1351L12.2627 12.2461L7.46639 17.3302C7.18035 17.6335 7.18035 18.125 7.46639 18.4282C7.60935 18.5797 7.79685 18.6555 7.98426 18.6555C8.17166 18.6555 8.35916 18.5797 8.50213 18.4282L13.2984 13.3441L14.3466 14.4552L9.55027 19.5392C9.26424 19.8425 9.26424 20.334 9.55027 20.6372C9.69324 20.7888 9.88074 20.8645 10.0681 20.8645C10.2555 20.8645 10.443 20.7888 10.586 20.6372L15.3823 15.5532L16.4305 16.6642L11.6342 21.7483C11.3481 22.0516 11.3481 22.5431 11.6342 22.8462C11.7771 22.9978 11.9646 23.0736 12.152 23.0736C12.3394 23.0736 12.5269 22.9978 12.6699 22.8462L17.4662 17.7622L18.5143 18.8732L13.7181 23.9573C13.432 24.2606 13.432 24.7521 13.7181 25.0553C13.861 25.2068 14.0485 25.2826 14.2359 25.2826C14.4233 25.2826 14.6108 25.2068 14.7538 25.0553L19.5501 19.9712L20.5983 21.0823L15.802 26.1664C15.516 26.4697 15.516 26.9612 15.802 27.2644C15.945 27.4159 16.1325 27.4917 16.3199 27.4917C16.5073 27.4917 16.6948 27.4159 16.8378 27.2644L21.6342 22.1802L22.7192 23.3304C20.4703 25.4064 18.233 27.4947 16.0209 29.5856C16.0199 29.5856 16.0199 29.5856 16.0199 29.5868C15.3628 30.2063 14.646 30.9199 13.9389 31.5959C13.5056 31.9281 13.5882 32.512 13.8031 32.7399C13.8031 32.7399 13.8031 32.7409 13.8041 32.7409C14.5092 33.6456 14.8988 34.8009 14.8988 35.9953C14.8988 37.3917 14.392 38.6981 13.4712 39.6732C13.4619 39.6831 11.2718 42.0047 11.2622 42.0148C8.07713 45.4696 2.46804 43.112 2.46482 38.219C2.46677 35.2485 4.73015 32.7949 7.58973 32.7928C9.14725 32.7938 10.6013 33.5288 11.5789 34.8072C11.844 35.1535 12.3308 35.191 12.6394 34.8941C12.6433 34.891 12.6463 34.8879 12.6502 34.8838L12.657 34.8775C13.0001 34.5506 12.9759 33.9614 12.5926 33.6705C11.3406 32.126 9.51932 31.24 7.59461 31.24H7.58484C3.92293 31.24 0.995776 34.4009 1.00007 38.219C0.996851 41.0962 2.65554 43.6375 5.10935 44.6939C6.56639 45.3194 8.16248 45.3624 9.60428 44.8725C8.23006 49.404 11.4284 54 15.8737 54H15.8815C19.514 54 22.4743 50.8829 22.4703 47.0168C22.4723 45.1794 21.8043 43.4455 20.5924 42.1329C20.5931 42.132 22.0879 40.3308 22.0879 40.3308C24.7266 37.2184 27.3366 34.0918 29.915 30.9576L31.0186 32.1274L26.2223 37.2114C25.9362 37.5147 25.9362 38.0062 26.2223 38.3094C26.3653 38.461 26.5528 38.5367 26.7402 38.5367C26.9276 38.5367 27.1151 38.461 27.2582 38.3094L32.0545 33.2253L33.1026 34.3364L28.3063 39.4204C28.0203 39.7237 28.0203 40.2152 28.3063 40.5184C28.4494 40.67 28.6369 40.7458 28.8243 40.7458C29.0117 40.7458 29.1992 40.67 29.3423 40.5184L34.1386 35.4344L35.1866 36.5453L30.3903 41.6294C30.1043 41.9327 30.1043 42.4242 30.3903 42.7274C30.5334 42.8789 30.7209 42.9547 30.9083 42.9547C31.0957 42.9547 31.2832 42.8789 31.4263 42.7274L36.2226 37.6433L37.2706 38.7542L32.4743 43.8384C32.1883 44.1417 32.1883 44.6332 32.4743 44.9364C32.6174 45.0879 32.8049 45.1637 32.9923 45.1637C33.1797 45.1637 33.3672 45.0879 33.5103 44.9364L38.3065 39.8522L39.3547 40.9632L34.5584 46.0473C34.2724 46.3506 34.2724 46.8421 34.5584 47.1453C34.7015 47.2968 34.889 47.3726 35.0764 47.3726C35.2638 47.3726 35.4513 47.2968 35.5943 47.1453L40.3906 42.0612L41.4387 43.1722L36.6424 48.2562C36.3563 48.5595 36.3563 49.051 36.6424 49.3542C36.7854 49.5058 36.9729 49.5815 37.1604 49.5815C37.3478 49.5815 37.5353 49.5058 37.6783 49.3542L42.4746 44.2702L43.5227 45.3811L38.7264 50.4651C38.4403 50.7684 38.4403 51.2599 38.7264 51.5631C38.8694 51.7147 39.0569 51.7905 39.2443 51.7905C39.4317 51.7905 39.6192 51.7147 39.7623 51.5631L44.5586 46.4791L45.6066 47.59L40.8104 52.6741C40.5243 52.9774 40.5243 53.4689 40.8104 53.7721C40.9534 53.9236 41.1409 53.9994 41.3283 53.9994C41.5157 53.9994 41.7032 53.9236 41.8463 53.7721L47.1598 48.1397C47.16 48.1395 47.1603 48.1392 47.1605 48.1389C47.1608 48.1387 47.161 48.1384 47.1612 48.1381L48.7142 46.492C49.4059 45.7588 49.7868 44.784 49.7868 43.7471C49.7868 42.7102 49.4059 41.7354 48.7143 41.0022L34.2375 25.6579C39.8531 18.7139 45.2971 11.7489 50.5132 4.82904C51.221 3.89005 51.1495 2.54083 50.3473 1.69055ZM8.0825 5.61918L9.11824 4.52129C9.97488 3.61325 11.3689 3.61325 12.2257 4.52129L26.6073 19.7659C25.6795 20.6108 24.7524 21.458 23.8272 22.3088L8.0825 5.61918ZM47.6781 42.1009C48.0932 42.5407 48.3218 43.1256 48.3218 43.7477C48.3218 44.3698 48.0932 44.9547 47.6781 45.3945L46.6424 46.4924C46.1584 45.9796 31.9183 30.885 30.8791 29.7836C31.6828 28.803 32.4838 27.8217 33.2809 26.8399L47.6781 42.1009ZM21.4058 38.8105C21.0509 38.5224 20.1044 38.0237 19.947 36.6072C19.903 36.216 19.5915 35.9219 19.2214 35.9219C18.7789 35.9219 18.4417 36.3293 18.4919 36.7895C18.4929 36.7895 18.4929 36.7895 18.4929 36.7895C18.6325 38.0554 19.2809 39.1745 20.2712 39.8586C20.3229 39.895 20.3747 39.9321 20.4284 39.9735C19.9204 40.5879 19.5011 41.1052 19.0202 41.6681C18.8864 41.8254 18.8181 42.0375 18.8337 42.2487C18.8483 42.4599 18.947 42.6586 19.1022 42.7922C20.3314 43.8558 21.0044 45.3866 21.0056 47.0167C21.0035 50.0087 18.7296 52.4451 15.8787 52.4472C13.0609 52.4432 10.7518 50.036 10.7518 47.0167C10.7552 44.5596 12.2213 43.2437 12.3339 43.0749L14.5067 40.7716C15.7038 39.5027 16.364 37.786 16.364 35.9953C16.365 34.6869 16.0115 33.423 15.3436 32.3424C15.9171 31.7865 16.4158 31.2932 16.995 30.746L16.9979 30.7419C32.8782 15.733 48.1133 2.83109 48.3996 2.65729C48.2032 2.86546 19.6266 33.1436 19.4948 33.301C19.2263 33.6219 19.2546 34.1136 19.5563 34.3972C19.8597 34.6836 20.3242 34.65 20.5905 34.332C20.6781 34.2262 49.2262 3.97638 49.4355 3.75455C49.3756 3.86624 37.5802 19.7031 21.4058 38.8105Z" fill="#FF3E79" stroke="#FF3E79"/>
</svg>
